<svg width="40" height="41" viewBox="0 0 40 41" fill="none" xmlns="http://www.w3.org/2000/svg">
<g id="8k_plus">
<mask id="mask0_4_38" style="mask-type:alpha" maskUnits="userSpaceOnUse" x="0" y="0" width="40" height="41">
<rect id="Bounding box" y="0.5" width="40" height="40" fill="#D9D9D9"/>
</mask>
<g mask="url(#mask0_4_38)">
<path id="8k_plus_2" d="M11.3055 25.5H15.5555C15.9727 25.5 16.3223 25.3589 16.6045 25.0768C16.8867 24.7946 17.0278 24.4449 17.0278 24.0278V17C17.0278 16.575 16.8867 16.2187 16.6045 15.9312C16.3223 15.6437 15.9727 15.5 15.5555 15.5H11.3055C10.8805 15.5 10.5243 15.6437 10.2368 15.9312C9.94929 16.2187 9.80554 16.575 9.80554 17V24.0278C9.80554 24.4449 9.94929 24.7946 10.2368 25.0768C10.5243 25.3589 10.8805 25.5 11.3055 25.5ZM12.0277 24.0278V21.25H14.8055V24.0278H12.0277ZM12.0277 19.7778V16.9722H14.8055V19.7778H12.0277ZM19.0556 25.5H21.2778V21.75L24.5834 25.5H27.4306L23.0278 20.5L27.4306 15.5H24.5834L21.2778 19.25V15.5H19.0556V25.5ZM27.9445 23.8333H29.6111V21.25H32.2222V19.7778H29.6111V17.1667H27.9445V19.7778H25.3611V21.25H27.9445V23.8333ZM7.77775 35.5C7.02775 35.5 6.37729 35.2245 5.82637 34.6736C5.27546 34.1227 5 33.4722 5 32.7222V8.27775C5 7.52775 5.27546 6.87729 5.82637 6.32638C6.37729 5.77546 7.02775 5.5 7.77775 5.5H32.2222C32.9722 5.5 33.6227 5.77546 34.1736 6.32638C34.7245 6.87729 35 7.52775 35 8.27775V32.7222C35 33.4722 34.7245 34.1227 34.1736 34.6736C33.6227 35.2245 32.9722 35.5 32.2222 35.5H7.77775ZM7.77775 32.7222H32.2222V8.27775H7.77775V32.7222Z" fill="#FFA800"/>
</g>
</g>
</svg>
