<svg width="40" height="41" viewBox="0 0 40 41" fill="none" xmlns="http://www.w3.org/2000/svg">
<g id="accessibility_new">
<mask id="mask0_4_344" style="mask-type:alpha" maskUnits="userSpaceOnUse" x="0" y="0" width="40" height="41">
<rect id="Bounding box" y="0.5" width="40" height="40" fill="#D9D9D9"/>
</mask>
<g mask="url(#mask0_4_344)">
<path id="accessibility_new_2" d="M20.0022 10.1111C19.1396 10.1111 18.4005 9.80394 17.7847 9.18969C17.169 8.57541 16.8611 7.83698 16.8611 6.9744C16.8611 6.11181 17.1683 5.37266 17.7825 4.75694C18.3968 4.14119 19.1352 3.83331 19.9978 3.83331C20.8604 3.83331 21.5995 4.14045 22.2153 4.75473C22.831 5.36898 23.1389 6.1074 23.1389 6.96998C23.1389 7.83256 22.8317 8.57173 22.2175 9.18748C21.6032 9.8032 20.8648 10.1111 20.0022 10.1111ZM15.3611 37.1666V15.1389C13.5463 15 11.7639 14.8009 10.0139 14.5416C8.26388 14.2824 6.59258 13.9537 5 13.5555L5.69446 10.7778C7.99074 11.3426 10.3241 11.7477 12.6945 11.993C15.0648 12.2384 17.5 12.3611 20 12.3611C22.5 12.3611 24.9352 12.2384 27.3055 11.993C29.6759 11.7477 32.0093 11.3426 34.3055 10.7778L35 13.5555C33.4074 13.9537 31.7361 14.2824 29.9861 14.5416C28.2361 14.8009 26.4537 15.0011 24.6389 15.1423V37.1666H21.8611V26.6111H18.1389V37.1666H15.3611Z" fill="#FFA800"/>
</g>
</g>
</svg>
