<svg width="40" height="41" viewBox="0 0 40 41" fill="none" xmlns="http://www.w3.org/2000/svg">
<g id="domino_mask">
<mask id="mask0_4_362" style="mask-type:alpha" maskUnits="userSpaceOnUse" x="0" y="0" width="40" height="41">
<rect id="Bounding box" y="0.5" width="40" height="40" fill="#D9D9D9"/>
</mask>
<g mask="url(#mask0_4_362)">
<path id="domino_mask_2" d="M13 30.5C11.5833 30.5 10.2292 30.25 8.93751 29.75C7.64584 29.25 6.48612 28.5139 5.45834 27.5417C4.12501 26.2917 3.15973 24.8125 2.56251 23.1042C1.96528 21.3958 1.66667 19.625 1.66667 17.7917C1.66667 15.625 2.19445 13.8681 3.25001 12.5208C4.30556 11.1736 5.84723 10.5 7.87501 10.5C8.26389 10.5 8.63195 10.5347 8.97917 10.6042C9.32639 10.6736 9.68056 10.7778 10.0417 10.9167L20 14.625L29.9583 10.9167C30.3195 10.7778 30.6736 10.6736 31.0208 10.6042C31.3681 10.5347 31.7361 10.5 32.125 10.5C34.1528 10.5 35.6945 11.1736 36.75 12.5208C37.8056 13.8681 38.3333 15.625 38.3333 17.7917C38.3333 19.625 38.0347 21.3958 37.4375 23.1042C36.8403 24.8125 35.875 26.2917 34.5417 27.5417C33.5139 28.5139 32.3542 29.25 31.0625 29.75C29.7708 30.25 28.4167 30.5 27 30.5C25.1667 30.5 23.6111 30.0833 22.3333 29.25L20.4167 28H19.5833L17.6667 29.25C16.3889 30.0833 14.8333 30.5 13 30.5ZM13 27.7223C14.0833 27.7223 15.0833 27.4838 16 27.007C16.9167 26.5301 17.7685 25.9352 18.5555 25.2223H21.4445C22.2315 25.9352 23.0833 26.5301 24 27.007C24.9167 27.4838 25.9167 27.7223 27 27.7223C28.0556 27.7223 29.0857 27.5301 30.0903 27.1458C31.0949 26.7616 31.9861 26.1898 32.7639 25.4306C33.7454 24.4306 34.456 23.2547 34.8958 21.9028C35.3357 20.5509 35.5556 19.1806 35.5556 17.7917C35.5556 16.5046 35.2778 15.4283 34.7223 14.5625C34.1667 13.6967 33.2732 13.2685 32.0417 13.2778C31.8472 13.2778 31.4769 13.3518 30.9305 13.5L20 17.5833L9.06946 13.5C8.89352 13.4259 8.71064 13.3704 8.52084 13.3333C8.33103 13.2963 8.13427 13.2778 7.93055 13.2778C6.69907 13.2778 5.81019 13.7083 5.26388 14.5694C4.71757 15.4306 4.44442 16.5046 4.44442 17.7917C4.44442 19.2083 4.6597 20.588 5.09026 21.9305C5.52081 23.2732 6.24998 24.4537 7.27776 25.4723C8.05553 26.2223 8.93517 26.7848 9.91667 27.1598C10.8981 27.5348 11.9259 27.7223 13 27.7223ZM15.0417 24.6667C16.0694 24.6667 16.875 24.4375 17.4583 23.9792C18.0417 23.5208 18.3333 22.8889 18.3333 22.0833C18.3333 20.7222 17.4375 19.4236 15.6458 18.1875C13.8542 16.9514 11.9583 16.3333 9.95834 16.3333C8.93056 16.3333 8.12501 16.5625 7.54167 17.0208C6.95834 17.4792 6.66667 18.1111 6.66667 18.9167C6.66667 20.2778 7.56251 21.5764 9.35417 22.8125C11.1458 24.0486 13.0417 24.6667 15.0417 24.6667ZM14.7917 22.3055C13.7176 22.3055 12.5394 21.9352 11.257 21.1945C9.97455 20.4537 9.22223 19.6944 9.00001 18.9167C9.19445 18.8426 9.38657 18.7801 9.57638 18.7292C9.76621 18.6783 9.9676 18.6528 10.1805 18.6528C11.2546 18.6528 12.4375 19.0301 13.7292 19.7847C15.0208 20.5393 15.7778 21.3056 16 22.0833C15.8056 22.1574 15.6088 22.213 15.4097 22.25C15.2107 22.287 15.0046 22.3055 14.7917 22.3055ZM24.9583 24.7083C26.9583 24.7083 28.8542 24.0833 30.6458 22.8333C32.4375 21.5833 33.3333 20.2778 33.3333 18.9167C33.3333 18.1111 33.0486 17.4722 32.4792 17C31.9097 16.5278 31.0972 16.2917 30.0417 16.2917C28.0417 16.2917 26.1458 16.9167 24.3542 18.1667C22.5625 19.4167 21.6667 20.7222 21.6667 22.0833C21.6667 22.8889 21.9583 23.5278 22.5417 24C23.125 24.4722 23.9306 24.7083 24.9583 24.7083ZM25.1805 22.3055C24.9676 22.3055 24.7732 22.287 24.5972 22.25C24.4213 22.213 24.2361 22.1574 24.0417 22.0833C24.2824 21.3056 25.0347 20.5463 26.2986 19.8055C27.5625 19.0648 28.7408 18.6945 29.8333 18.6945C30.0463 18.6945 30.2454 18.713 30.4305 18.75C30.6157 18.787 30.8056 18.8426 31 18.9167C30.7593 19.6944 30.0023 20.4537 28.7292 21.1945C27.456 21.9352 26.2732 22.3055 25.1805 22.3055Z" fill="#FFA800"/>
</g>
</g>
</svg>
