<svg width="40" height="41" viewBox="0 0 40 41" fill="none" xmlns="http://www.w3.org/2000/svg">
<g id="live_tv">
<mask id="mask0_4_338" style="mask-type:alpha" maskUnits="userSpaceOnUse" x="0" y="0" width="40" height="41">
<rect id="Bounding box" y="0.5" width="40" height="40" fill="#D9D9D9"/>
</mask>
<g mask="url(#mask0_4_338)">
<path id="live_tv_2" d="M15.9167 26.0555L27.2222 18.8333L15.9167 11.6111V26.0555ZM13.6111 35.5V32.1667H6.11108C5.36108 32.1667 4.71062 31.8912 4.1597 31.3403C3.60879 30.7894 3.33333 30.1389 3.33333 29.3889V8.27775C3.33333 7.52775 3.60879 6.87729 4.1597 6.32638C4.71062 5.77546 5.36108 5.5 6.11108 5.5H33.8889C34.6389 5.5 35.2894 5.77546 35.8403 6.32638C36.3912 6.87729 36.6667 7.52775 36.6667 8.27775V29.3889C36.6667 30.1389 36.3912 30.7894 35.8403 31.3403C35.2894 31.8912 34.6389 32.1667 33.8889 32.1667H26.3889V35.5H13.6111ZM6.11108 29.3889H33.8889V8.27775H6.11108V29.3889Z" fill="#FFA800"/>
</g>
</g>
</svg>
