<svg width="40" height="41" viewBox="0 0 40 41" fill="none" xmlns="http://www.w3.org/2000/svg">
<g id="save">
<mask id="mask0_4_374" style="mask-type:alpha" maskUnits="userSpaceOnUse" x="0" y="0" width="40" height="41">
<rect id="Bounding box" y="0.5" width="40" height="40" fill="#D9D9D9"/>
</mask>
<g mask="url(#mask0_4_374)">
<path id="save_2" d="M35 12.0833V32.7222C35 33.4722 34.7245 34.1227 34.1736 34.6736C33.6227 35.2245 32.9722 35.5 32.2222 35.5H7.77775C7.02775 35.5 6.37729 35.2245 5.82637 34.6736C5.27546 34.1227 5 33.4722 5 32.7222V8.27775C5 7.52775 5.27546 6.87729 5.82637 6.32638C6.37729 5.77546 7.02775 5.5 7.77775 5.5H28.4167L35 12.0833ZM32.2222 13.3055L27.1945 8.27775H7.77775V32.7222H32.2222V13.3055ZM19.9935 30.3611C21.2571 30.3611 22.3333 29.9189 23.2222 29.0343C24.1111 28.1498 24.5555 27.0757 24.5555 25.8121C24.5555 24.5485 24.1133 23.4722 23.2288 22.5833C22.3442 21.6945 21.2702 21.25 20.0065 21.25C18.7429 21.25 17.6667 21.6923 16.7778 22.5768C15.8889 23.4614 15.4445 24.5354 15.4445 25.799C15.4445 27.0627 15.8867 28.1389 16.7713 29.0278C17.6558 29.9167 18.7298 30.3611 19.9935 30.3611ZM9.80554 16.5H24.75V10.3055H9.80554V16.5Z" fill="#FFA800"/>
</g>
</g>
</svg>
