<svg width="40" height="41" viewBox="0 0 40 41" fill="none" xmlns="http://www.w3.org/2000/svg">
<g id="volunteer_activism">
<mask id="mask0_4_356" style="mask-type:alpha" maskUnits="userSpaceOnUse" x="0" y="0" width="40" height="41">
<rect id="Bounding box" y="0.5" width="40" height="40" fill="#D9D9D9"/>
</mask>
<g mask="url(#mask0_4_356)">
<path id="volunteer_activism_2" d="M26.8333 21.6666C25.537 20.5 24.294 19.3588 23.1042 18.243C21.9144 17.1273 20.8687 16.0375 19.9671 14.9737C19.0655 13.9099 18.3456 12.8802 17.8074 11.8845C17.2691 10.8889 17 9.9274 17 8.99998C17 7.52298 17.502 6.28336 18.5061 5.28111C19.5102 4.27888 20.752 3.77777 22.2317 3.77777C23.0772 3.77777 23.9028 3.99305 24.7083 4.4236C25.5139 4.85416 26.2222 5.43517 26.8333 6.16665C27.4445 5.43517 28.1528 4.85416 28.9583 4.4236C29.7639 3.99305 30.5894 3.77777 31.435 3.77777C32.9146 3.77777 34.1565 4.27888 35.1606 5.28111C36.1646 6.28336 36.6667 7.52298 36.6667 8.99998C36.6667 9.9274 36.3975 10.8889 35.8593 11.8845C35.321 12.8802 34.6011 13.9099 33.6996 14.9737C32.798 16.0375 31.753 17.1289 30.5645 18.2478C29.3761 19.3667 28.1324 20.5063 26.8333 21.6666ZM26.8333 17.8611C28.6019 16.2315 30.2199 14.6134 31.6875 13.0069C33.1551 11.4004 33.8889 10.0648 33.8889 8.99998C33.8889 8.27917 33.6611 7.69156 33.2054 7.23715C32.7498 6.78273 32.1605 6.55552 31.4377 6.55552C30.9978 6.55552 30.5671 6.65506 30.1458 6.85415C29.7245 7.0532 29.3148 7.40737 28.9167 7.91665L26.8333 10.4444L24.75 7.91665C24.3519 7.40737 23.9421 7.0532 23.5208 6.85415C23.0995 6.65506 22.6689 6.55552 22.229 6.55552C21.5062 6.55552 20.917 6.78273 20.4613 7.23715C20.0056 7.69156 19.7778 8.27917 19.7778 8.99998C19.7778 10.0648 20.5116 11.4004 21.9792 13.0069C23.4468 14.6134 25.0648 16.2315 26.8333 17.8611ZM23.5 37.9444L10.9722 34.3889V36.7777H1.66667V19.7222H14.6667L25.1945 23.6667C26 23.963 26.669 24.4583 27.2014 25.1528C27.7338 25.8472 28 26.75 28 27.8611H32.2778C33.5185 27.8611 34.5602 28.2917 35.4028 29.1528C36.2454 30.0139 36.6667 31.1667 36.6667 32.6111V33.8889L23.5 37.9444ZM4.44442 34H8.16667V22.5H4.44442V34ZM23.3611 35.0556L33.7778 31.8611C33.6389 31.4074 33.4375 31.0902 33.1736 30.9097C32.9097 30.7291 32.6111 30.6389 32.2778 30.6389H23.8611C23.0185 30.6389 22.2454 30.5833 21.5417 30.4722C20.838 30.3611 20.1389 30.1944 19.4445 29.9722L16.2361 28.9444L17.1667 26.2778L20.3055 27.3056C20.9352 27.5093 21.5695 27.6528 22.2083 27.7361C22.8472 27.8194 23.8148 27.8611 25.1111 27.8611C25.1111 27.537 25.0394 27.2222 24.8958 26.9166C24.7523 26.6111 24.537 26.3981 24.25 26.2778L14.1945 22.5H10.9722V31.5L23.3611 35.0556Z" fill="#FFA800"/>
</g>
</g>
</svg>
