<svg width="40" height="41" viewBox="0 0 40 41" fill="none" xmlns="http://www.w3.org/2000/svg">
<g id="vrpano">
<mask id="mask0_4_44" style="mask-type:alpha" maskUnits="userSpaceOnUse" x="0" y="0" width="40" height="41">
<rect id="Bounding box" y="0.5" width="40" height="40" fill="#D9D9D9"/>
</mask>
<g mask="url(#mask0_4_44)">
<path id="vrpano_2" d="M9.33333 26.2222C11.1019 26 12.8727 25.8241 14.6458 25.6945C16.419 25.5648 18.2037 25.5 20 25.5C21.7963 25.5 23.581 25.5648 25.3542 25.6945C27.1273 25.8241 28.8981 26 30.6667 26.2222L23.5555 17.3056L18.5278 23.6111L15 19.1667L9.33333 26.2222ZM5 33.8334C4.52777 33.8334 4.13194 33.6736 3.81249 33.3542C3.49305 33.0347 3.33333 32.6389 3.33333 32.1667V8.83335C3.33333 8.36113 3.49305 7.9653 3.81249 7.64585C4.13194 7.32641 4.52777 7.16669 5 7.16669C5.22222 7.16669 5.71527 7.29863 6.47916 7.56252C7.24305 7.82641 8.26388 8.11113 9.54166 8.41669C10.8194 8.72224 12.3264 9.00696 14.0625 9.27085C15.7986 9.53474 17.7778 9.66669 20 9.66669C22.2222 9.66669 24.2014 9.53474 25.9375 9.27085C27.6736 9.00696 29.1806 8.72224 30.4583 8.41669C31.7361 8.11113 32.7569 7.82641 33.5208 7.56252C34.2847 7.29863 34.7778 7.16669 35 7.16669C35.4722 7.16669 35.8681 7.32641 36.1875 7.64585C36.5069 7.9653 36.6667 8.36113 36.6667 8.83335V32.1667C36.6667 32.6389 36.5069 33.0347 36.1875 33.3542C35.8681 33.6736 35.4722 33.8334 35 33.8334C34.7778 33.8334 34.2847 33.7014 33.5208 33.4375C32.7569 33.1736 31.7361 32.8889 30.4583 32.5834C29.1806 32.2778 27.6736 31.9931 25.9375 31.7292C24.2014 31.4653 22.2222 31.3334 20 31.3334C17.7778 31.3334 15.7986 31.4653 14.0625 31.7292C12.3264 31.9931 10.8194 32.2778 9.54166 32.5834C8.26388 32.8889 7.24305 33.1736 6.47916 33.4375C5.71527 33.7014 5.22222 33.8334 5 33.8334ZM6.11108 30.6667C8.35183 29.9167 10.6366 29.3773 12.9652 29.0486C15.294 28.72 17.6389 28.5556 20 28.5556C22.3611 28.5556 24.706 28.72 27.0347 29.0486C29.3634 29.3773 31.6482 29.9167 33.8889 30.6667V10.375C31.6482 11.1065 29.3634 11.6343 27.0347 11.9584C24.706 12.2824 22.3611 12.4444 20 12.4444C17.6389 12.4444 15.294 12.2824 12.9652 11.9584C10.6366 11.6343 8.35183 11.1065 6.11108 10.375V30.6667Z" fill="#FFA800"/>
</g>
</g>
</svg>
