<svg width="44" height="34" viewBox="0 0 44 34" fill="none" xmlns="http://www.w3.org/2000/svg">
<g id="Frame" clip-path="url(#clip0_3_41)">
<path id="Vector" d="M32.1649 5.84208H33.695C36.4004 5.92458 38.6562 6.72514 40.455 8.24681C42.2538 9.76694 43.1855 11.6828 43.25 13.9913V25.2358C43.1855 27.5427 42.2538 29.4661 40.455 31C38.6562 32.5339 36.4022 33.3283 33.695 33.3833H9.80496C7.09954 33.3283 4.84383 32.5339 3.045 31C1.24617 29.4661 0.3145 27.5442 0.25 25.2358V13.9913C0.3145 11.6828 1.24617 9.76694 3.045 8.24681C4.84383 6.72514 7.09775 5.92458 9.80496 5.84208H11.1917L9.08829 4.13097C8.87197 3.95139 8.70108 3.73593 8.58614 3.49787C8.4712 3.25981 8.41465 3.00421 8.42 2.74681C8.42 2.20292 8.64217 1.74153 9.08829 1.36111L9.13667 1.31986C9.61504 0.939444 10.1633 0.75 10.785 0.75C11.4067 0.75 11.955 0.939444 12.4333 1.31986L17.5449 5.51667C17.6722 5.62514 17.7851 5.73361 17.88 5.84208H25.5251C25.5996 5.72124 25.6964 5.61138 25.8118 5.51667L30.9233 1.31986C31.4018 0.939444 31.95 0.75 32.5717 0.75C33.1934 0.75 33.7577 0.980694 34.2361 1.36111C34.7145 1.74153 34.9367 2.20292 34.9367 2.74681C34.9367 3.28917 34.7145 3.75056 34.2683 4.13097L32.1649 5.84208ZM9.80496 9.79444C8.46838 9.82194 7.345 10.2161 6.43662 10.9754C5.53004 11.7362 5.05883 12.7018 5.02837 13.8691V25.358C5.05883 26.5252 5.53004 27.4892 6.43662 28.25C7.345 29.0108 8.46838 29.405 9.80496 29.431H33.695C35.0316 29.405 36.155 29.0108 37.0634 28.25C37.97 27.4892 38.4412 26.5252 38.4717 25.358V13.8691C38.4412 12.7003 37.97 11.7362 37.0634 10.9754C36.155 10.2161 35.0316 9.82194 33.695 9.79444H9.80496ZM14.5833 15.7024C15.2516 15.7024 15.8088 15.8919 16.2549 16.2722C16.7028 16.6527 16.9412 17.1416 16.9717 17.7389V19.531C16.9412 20.1283 16.7028 20.6172 16.2549 20.9977C15.8088 21.3796 15.2516 21.5691 14.5833 21.5691C13.915 21.5691 13.3578 21.3781 12.9117 20.9977C12.4638 20.6172 12.2255 20.1283 12.195 19.531V17.7389C12.195 17.1691 12.4262 16.6863 12.8866 16.2921C13.3489 15.8994 13.915 15.7024 14.5833 15.7024ZM28.9167 15.7024C29.5849 15.7024 30.1422 15.8919 30.5884 16.2722C31.0363 16.6527 31.2745 17.1416 31.305 17.7389V19.531C31.2745 20.1283 31.0363 20.6172 30.5884 20.9977C30.1422 21.3796 29.5849 21.5691 28.9167 21.5691C28.2484 21.5691 27.6912 21.3781 27.2451 20.9977C26.7972 20.6172 26.5588 20.1283 26.5283 19.531V17.7389C26.5588 17.1416 26.7972 16.6527 27.2451 16.2722C27.6912 15.8919 28.2484 15.7024 28.9167 15.7024Z" fill="#EEEEEE"/>
</g>
<defs>
<clipPath id="clip0_3_41">
<rect width="43" height="33" fill="white" transform="translate(0.25 0.75)"/>
</clipPath>
</defs>
</svg>
