<svg width="32" height="33" viewBox="0 0 32 33" fill="none" xmlns="http://www.w3.org/2000/svg">
<g id="HomeOutlined" clip-path="url(#clip0_4_103)">
<path id="Vector" d="M31.5179 16L17.7179 2.20714L16.7929 1.28214C16.5821 1.07277 16.2971 0.955261 16 0.955261C15.7029 0.955261 15.4179 1.07277 15.2072 1.28214L0.482154 16C0.266194 16.2151 0.0955166 16.4713 -0.0198027 16.7535C-0.135122 17.0356 -0.192746 17.3381 -0.189275 17.6429C-0.174989 18.9 0.87144 19.9036 2.12858 19.9036H3.64644V31.5357H28.3536V19.9036H29.9036C30.5143 19.9036 31.0893 19.6643 31.5214 19.2321C31.7342 19.02 31.9028 18.7678 32.0175 18.4901C32.1321 18.2124 32.1905 17.9147 32.1893 17.6143C32.1893 17.0071 31.95 16.4321 31.5179 16ZM18 28.9643H14V21.6786H18V28.9643ZM25.7822 17.3321V28.9643H20.2857V20.8214C20.2857 20.0321 19.6464 19.3929 18.8572 19.3929H13.1429C12.3536 19.3929 11.7143 20.0321 11.7143 20.8214V28.9643H6.21787V17.3321H2.7893L16.0036 4.12857L16.8286 4.95357L29.2143 17.3321H25.7822Z" fill="white"/>
</g>
<defs>
<clipPath id="clip0_4_103">
<rect width="32" height="32" fill="white" transform="translate(0 0.25)"/>
</clipPath>
</defs>
</svg>
