<svg width="163" height="41" viewBox="0 0 163 41" fill="none" xmlns="http://www.w3.org/2000/svg">
<rect x="0.5" width="99" height="40" rx="7.5" fill="#FFA800"/>
<path d="M22.4229 22.1045L26.627 23.4375C25.9824 25.7812 24.9082 27.5244 23.4043 28.667C21.9102 29.7998 20.0107 30.3662 17.7061 30.3662C14.8545 30.3662 12.5107 29.3945 10.6748 27.4512C8.83887 25.498 7.9209 22.832 7.9209 19.4531C7.9209 15.8789 8.84375 13.1055 10.6895 11.1328C12.5352 9.15039 14.9619 8.15918 17.9697 8.15918C20.5967 8.15918 22.7305 8.93555 24.3711 10.4883C25.3477 11.4063 26.0801 12.7246 26.5684 14.4434L22.2764 15.4688C22.0225 14.3555 21.4902 13.4766 20.6797 12.832C19.8789 12.1875 18.9023 11.8652 17.75 11.8652C16.1582 11.8652 14.8643 12.4365 13.8682 13.5791C12.8818 14.7217 12.3887 16.5723 12.3887 19.1309C12.3887 21.8457 12.877 23.7793 13.8535 24.9316C14.8301 26.084 16.0996 26.6602 17.6621 26.6602C18.8145 26.6602 19.8057 26.2939 20.6357 25.5615C21.4658 24.8291 22.0615 23.6768 22.4229 22.1045ZM34.2734 30H30.1572V14.4434H33.9805V16.6553C34.6348 15.6104 35.2207 14.9219 35.7383 14.5898C36.2656 14.2578 36.8613 14.0918 37.5254 14.0918C38.4629 14.0918 39.3662 14.3506 40.2354 14.8682L38.9609 18.457C38.2676 18.0078 37.623 17.7832 37.0273 17.7832C36.4512 17.7832 35.9629 17.9443 35.5625 18.2666C35.1621 18.5791 34.8447 19.1504 34.6104 19.9805C34.3857 20.8105 34.2734 22.5488 34.2734 25.1953V30ZM52.2617 30V27.6709C51.6953 28.501 50.9482 29.1553 50.0205 29.6338C49.1025 30.1123 48.1309 30.3516 47.1055 30.3516C46.0605 30.3516 45.123 30.1221 44.293 29.6631C43.4629 29.2041 42.8623 28.5596 42.4912 27.7295C42.1201 26.8994 41.9346 25.752 41.9346 24.2871V14.4434H46.0508V21.5918C46.0508 23.7793 46.124 25.1221 46.2705 25.6201C46.4268 26.1084 46.7051 26.499 47.1055 26.792C47.5059 27.0752 48.0137 27.2168 48.6289 27.2168C49.332 27.2168 49.9619 27.0264 50.5186 26.6455C51.0752 26.2549 51.4561 25.7764 51.6611 25.21C51.8662 24.6338 51.9688 23.2324 51.9688 21.0059V14.4434H56.085V30H52.2617ZM58.9121 25.5615L63.043 24.9316C63.2188 25.7324 63.5752 26.3428 64.1123 26.7627C64.6494 27.1729 65.4014 27.3779 66.3682 27.3779C67.4326 27.3779 68.2334 27.1826 68.7705 26.792C69.1318 26.5186 69.3125 26.1523 69.3125 25.6934C69.3125 25.3809 69.2148 25.1221 69.0195 24.917C68.8145 24.7217 68.3555 24.541 67.6426 24.375C64.3223 23.6426 62.2178 22.9736 61.3291 22.3682C60.0986 21.5283 59.4834 20.3613 59.4834 18.8672C59.4834 17.5195 60.0156 16.3867 61.0801 15.4688C62.1445 14.5508 63.7949 14.0918 66.0312 14.0918C68.1602 14.0918 69.7422 14.4385 70.7773 15.1318C71.8125 15.8252 72.5254 16.8506 72.916 18.208L69.0342 18.9258C68.8682 18.3203 68.5508 17.8564 68.082 17.5342C67.623 17.2119 66.9639 17.0508 66.1045 17.0508C65.0205 17.0508 64.2441 17.2021 63.7754 17.5049C63.4629 17.7197 63.3066 17.998 63.3066 18.3398C63.3066 18.6328 63.4434 18.8818 63.7168 19.0869C64.0879 19.3604 65.3672 19.7461 67.5547 20.2441C69.752 20.7422 71.2852 21.3525 72.1543 22.0752C73.0137 22.8076 73.4434 23.8281 73.4434 25.1367C73.4434 26.5625 72.8477 27.7881 71.6562 28.8135C70.4648 29.8389 68.7021 30.3516 66.3682 30.3516C64.249 30.3516 62.5693 29.9219 61.3291 29.0625C60.0986 28.2031 59.293 27.0361 58.9121 25.5615ZM81.1631 8.52539V16.4209C82.4912 14.8682 84.0781 14.0918 85.9238 14.0918C86.8711 14.0918 87.7256 14.2676 88.4873 14.6191C89.249 14.9707 89.8203 15.4199 90.2012 15.9668C90.5918 16.5137 90.8555 17.1191 90.9922 17.7832C91.1387 18.4473 91.2119 19.4775 91.2119 20.874V30H87.0957V21.7822C87.0957 20.1514 87.0176 19.1162 86.8613 18.6768C86.7051 18.2373 86.4268 17.8906 86.0264 17.6367C85.6357 17.373 85.1426 17.2412 84.5469 17.2412C83.8633 17.2412 83.2529 17.4072 82.7158 17.7393C82.1787 18.0713 81.7832 18.5742 81.5293 19.248C81.2852 19.9121 81.1631 20.8984 81.1631 22.207V30H77.0469V8.52539H81.1631Z" fill="black"/>
<path d="M113.255 8.52539V16.4209C114.583 14.8682 116.17 14.0918 118.016 14.0918C118.963 14.0918 119.817 14.2676 120.579 14.6191C121.341 14.9707 121.912 15.4199 122.293 15.9668C122.684 16.5137 122.947 17.1191 123.084 17.7832C123.23 18.4473 123.304 19.4775 123.304 20.874V30H119.188V21.7822C119.188 20.1514 119.109 19.1162 118.953 18.6768C118.797 18.2373 118.519 17.8906 118.118 17.6367C117.728 17.373 117.234 17.2412 116.639 17.2412C115.955 17.2412 115.345 17.4072 114.808 17.7393C114.271 18.0713 113.875 18.5742 113.621 19.248C113.377 19.9121 113.255 20.8984 113.255 22.207V30H109.139V8.52539H113.255ZM137.732 30V27.6709C137.166 28.501 136.419 29.1553 135.491 29.6338C134.573 30.1123 133.602 30.3516 132.576 30.3516C131.531 30.3516 130.594 30.1221 129.764 29.6631C128.934 29.2041 128.333 28.5596 127.962 27.7295C127.591 26.8994 127.405 25.752 127.405 24.2871V14.4434H131.521V21.5918C131.521 23.7793 131.595 25.1221 131.741 25.6201C131.897 26.1084 132.176 26.499 132.576 26.792C132.977 27.0752 133.484 27.2168 134.1 27.2168C134.803 27.2168 135.433 27.0264 135.989 26.6455C136.546 26.2549 136.927 25.7764 137.132 25.21C137.337 24.6338 137.439 23.2324 137.439 21.0059V14.4434H141.556V30H137.732ZM145.657 30V8.52539H149.773V16.2598C151.043 14.8145 152.547 14.0918 154.285 14.0918C156.18 14.0918 157.747 14.7803 158.987 16.1572C160.228 17.5244 160.848 19.4922 160.848 22.0605C160.848 24.7168 160.213 26.7627 158.943 28.1982C157.684 29.6338 156.15 30.3516 154.344 30.3516C153.455 30.3516 152.576 30.1318 151.707 29.6924C150.848 29.2432 150.105 28.584 149.48 27.7148V30H145.657ZM149.744 21.8848C149.744 23.4961 149.998 24.6875 150.506 25.459C151.219 26.5527 152.166 27.0996 153.348 27.0996C154.256 27.0996 155.027 26.7139 155.662 25.9424C156.307 25.1611 156.629 23.9355 156.629 22.2656C156.629 20.4883 156.307 19.209 155.662 18.4277C155.018 17.6367 154.192 17.2412 153.187 17.2412C152.2 17.2412 151.38 17.627 150.726 18.3984C150.071 19.1602 149.744 20.3223 149.744 21.8848Z" fill="white"/>
<path d="M159.979 7.82812C160.235 7.82812 160.481 7.89258 160.717 8.02148C160.952 8.14909 161.137 8.33268 161.271 8.57227C161.407 8.81185 161.475 9.0625 161.475 9.32422C161.475 9.58464 161.408 9.83333 161.275 10.0703C161.144 10.306 160.96 10.4902 160.723 10.623C160.487 10.7546 160.239 10.8203 159.979 10.8203C159.718 10.8203 159.469 10.7546 159.232 10.623C158.997 10.4902 158.812 10.306 158.68 10.0703C158.548 9.83333 158.482 9.58464 158.482 9.32422C158.482 9.0625 158.549 8.81185 158.684 8.57227C158.819 8.33268 159.005 8.14909 159.24 8.02148C159.476 7.89258 159.722 7.82812 159.979 7.82812ZM159.98 8.12109C159.775 8.12109 159.577 8.17253 159.389 8.27539C159.2 8.37826 159.051 8.52604 158.941 8.71875C158.833 8.91146 158.779 9.11328 158.779 9.32422C158.779 9.53385 158.832 9.73372 158.938 9.92383C159.044 10.1139 159.193 10.2624 159.383 10.3691C159.573 10.4759 159.772 10.5293 159.98 10.5293C160.19 10.5293 160.389 10.4759 160.578 10.3691C160.768 10.2624 160.917 10.1139 161.023 9.92383C161.13 9.73372 161.184 9.53385 161.184 9.32422C161.184 9.11328 161.129 8.91146 161.02 8.71875C160.911 8.52604 160.762 8.37826 160.572 8.27539C160.383 8.17253 160.186 8.12109 159.98 8.12109ZM159.303 10.125V8.53711H159.625C159.927 8.53711 160.096 8.53841 160.133 8.54102C160.24 8.55013 160.322 8.57161 160.381 8.60547C160.441 8.63802 160.49 8.6888 160.529 8.75781C160.57 8.82552 160.59 8.90104 160.59 8.98438C160.59 9.09896 160.552 9.19727 160.477 9.2793C160.402 9.36003 160.298 9.41016 160.162 9.42969C160.21 9.44792 160.247 9.4681 160.273 9.49023C160.299 9.51107 160.335 9.55143 160.381 9.61133C160.393 9.62695 160.432 9.69141 160.498 9.80469L160.686 10.125H160.287L160.154 9.86719C160.064 9.69401 159.99 9.58529 159.932 9.54102C159.873 9.49544 159.799 9.47266 159.709 9.47266H159.625V10.125H159.303ZM159.625 9.22266H159.756C159.942 9.22266 160.057 9.21549 160.102 9.20117C160.147 9.18685 160.183 9.16211 160.209 9.12695C160.235 9.09049 160.248 9.04948 160.248 9.00391C160.248 8.95964 160.235 8.92057 160.209 8.88672C160.184 8.85156 160.148 8.82682 160.102 8.8125C160.055 8.79688 159.939 8.78906 159.756 8.78906H159.625V9.22266Z" fill="white"/>
</svg>
