<svg width="1642" height="91" viewBox="0 0 1642 91" fill="none" xmlns="http://www.w3.org/2000/svg">
<path d="M32.2075 84.502C35.5511 84.502 38.4281 84.0354 40.8386 83.1023C43.3269 82.1692 45.232 80.6918 46.5539 78.6701C47.9536 76.6484 48.6534 74.0434 48.6534 70.8553C48.6534 68.3671 48.0702 66.3065 46.9038 64.6735C45.7374 62.9629 44.1045 61.5243 42.005 60.3579C39.9833 59.1916 37.5728 58.1418 34.7735 57.2087C31.9742 56.1979 28.9027 55.187 25.5591 54.1761C22.6043 53.3208 19.6883 52.2711 16.8113 51.0269C13.9342 49.705 11.3293 48.0721 8.99653 46.1281C6.74154 44.1842 4.91421 41.8125 3.51456 39.0132C2.19266 36.1362 1.53172 32.637 1.53172 28.5158C1.53172 23.617 2.73697 19.457 5.14749 16.0356C7.63576 12.5365 10.9016 9.85379 14.9451 7.98758C18.9885 6.12138 23.4985 5.18828 28.475 5.18828C32.985 5.18828 36.873 5.84922 40.1388 7.17112C43.4824 8.41525 46.2817 10.2815 48.5367 12.7697C50.7917 15.258 52.6191 18.2906 54.0187 21.8675L49.5865 19.6514L51.2194 6.35465H56.818V27.9326H51.1028C50.1697 24.3558 48.6923 21.3232 46.6705 18.8349C44.6488 16.2689 42.2383 14.3249 39.439 13.003C36.7174 11.6811 33.646 11.0202 30.2246 11.0202C27.1143 11.0202 24.4705 11.4867 22.2932 12.4198C20.1938 13.3529 18.5997 14.7137 17.5111 16.5021C16.4225 18.2128 15.8782 20.3123 15.8782 22.8006C15.8782 25.2889 16.4225 27.3495 17.5111 28.9824C18.5997 30.6153 20.116 32.015 22.06 33.1813C24.0817 34.27 26.3756 35.2031 28.9416 35.9806C31.5076 36.7582 34.2681 37.5747 37.2229 38.43C40.5665 39.3631 43.7546 40.4518 46.7872 41.6959C49.8975 42.94 52.6968 44.4952 55.1851 46.3614C57.6734 48.2276 59.6173 50.5993 61.017 53.4763C62.4944 56.3534 63.2331 59.8914 63.2331 64.0904C63.2331 69.4557 61.9501 74.1212 59.3841 78.0869C56.8958 81.9748 53.4355 85.0074 49.0033 87.1846C44.5711 89.2841 39.4001 90.3339 33.4905 90.3339C28.9027 90.3339 24.5871 89.6729 20.5437 88.351C16.578 86.9514 13.1177 84.813 10.1629 81.9359C7.28585 79.0589 5.06973 75.3265 3.51456 70.7387L7.59688 74.1212L6.08059 89.1675H0.132063V63.7404H6.19723C7.67464 68.406 9.6186 72.2939 12.0291 75.4042C14.5174 78.4368 17.4722 80.7307 20.8936 82.2859C24.315 83.7633 28.0863 84.502 32.2075 84.502ZM108.003 84.502C111.035 84.502 113.679 83.9188 115.934 82.7524C118.189 81.586 120.133 80.0309 121.766 78.0869C123.477 76.1429 124.915 74.0823 126.082 71.9051L130.514 75.0543C128.959 78.0869 126.976 80.7696 124.565 83.1023C122.233 85.4351 119.472 87.2235 116.284 88.4677C113.096 89.7118 109.364 90.3339 105.087 90.3339C98.944 90.3339 93.3843 89.0508 88.4077 86.4848C83.5089 83.9188 79.621 80.2641 76.7439 75.5209C73.9446 70.7776 72.545 65.2179 72.545 58.8417C72.545 52.4655 73.9446 46.9446 76.7439 42.2791C79.5433 37.6136 83.4701 33.9978 88.5244 31.4318C93.5787 28.8657 99.4494 27.5827 106.137 27.5827C109.947 27.5827 113.368 27.9326 116.401 28.6325C119.433 29.3323 121.999 30.1876 124.099 31.1985C126.276 32.2094 127.948 33.1425 129.114 33.9978V47.8777H115.351V33.1813C116.051 33.2591 116.673 33.4924 117.217 33.8812C117.762 34.27 118.228 34.7365 118.617 35.2808C119.006 35.8251 119.278 36.4083 119.433 37.0304C119.589 37.6525 119.55 38.2745 119.317 38.8966C118.306 37.2637 116.751 35.864 114.651 34.6976C112.552 33.5313 110.025 32.9481 107.07 32.9481C103.571 32.9481 100.616 33.9589 98.2053 35.9806C95.7948 37.9246 93.9286 40.8406 92.6067 44.7285C91.3625 48.5387 90.7405 53.243 90.7405 58.8417C90.7405 63.0406 91.1293 66.7341 91.9069 69.9222C92.6844 73.1103 93.7731 75.793 95.1727 77.9703C96.6501 80.1475 98.4386 81.7804 100.538 82.869C102.715 83.9577 105.204 84.502 108.003 84.502ZM181.676 28.2826V43.3288C181.132 43.1733 180.471 43.0567 179.693 42.9789C178.993 42.8234 178.216 42.7068 177.36 42.629C176.505 42.4735 175.611 42.3957 174.678 42.3957C172.967 42.3957 171.373 42.629 169.896 43.0956C168.418 43.4843 167.057 44.1064 165.813 44.9618C164.569 45.7393 163.442 46.7502 162.431 47.9943C161.42 49.2385 160.487 50.7548 159.631 52.5432L159.165 48.3443C160.409 44.3786 161.848 40.8406 163.481 37.7302C165.113 34.6199 167.096 32.2094 169.429 30.4987C171.84 28.7102 174.561 27.816 177.594 27.816C178.527 27.816 179.343 27.8549 180.043 27.9326C180.743 28.0104 181.287 28.127 181.676 28.2826ZM136.77 89.1675V84.6186H136.887C138.909 84.6186 140.581 84.3853 141.903 83.9188C143.302 83.4522 144.002 82.4802 144.002 81.0028V37.8469C144.002 36.9138 143.769 36.2139 143.302 35.7474C142.913 35.2031 142.252 34.7754 141.319 34.4644C140.464 34.1533 139.337 33.8423 137.937 33.5313L136.77 33.298V28.7491H160.448V47.0612L161.614 46.2448V83.219C161.614 83.53 162.003 83.8021 162.781 84.0354C163.558 84.2687 164.53 84.4242 165.697 84.502C166.863 84.5797 168.029 84.6186 169.196 84.6186H171.062V89.1675H136.77ZM253.141 59.0749C253.141 65.2179 251.78 70.661 249.059 75.4042C246.337 80.0697 242.488 83.7244 237.512 86.3682C232.613 89.012 226.898 90.3339 220.366 90.3339C213.834 90.3339 208.08 89.012 203.104 86.3682C198.127 83.7244 194.278 80.0697 191.557 75.4042C188.835 70.661 187.474 65.2179 187.474 59.0749C187.474 54.4094 188.252 50.1716 189.807 46.3614C191.362 42.4735 193.578 39.1299 196.455 36.3306C199.41 33.5313 202.87 31.3929 206.836 29.9155C210.88 28.3603 215.39 27.5827 220.366 27.5827C225.265 27.5827 229.697 28.3603 233.663 29.9155C237.706 31.3929 241.166 33.5313 244.044 36.3306C246.998 39.1299 249.253 42.4735 250.809 46.3614C252.364 50.1716 253.141 54.4094 253.141 59.0749ZM205.67 58.9583C205.67 64.7124 206.214 69.5335 207.303 73.4214C208.469 77.2315 210.141 80.1086 212.318 82.0526C214.495 83.9965 217.178 84.9685 220.366 84.9685C223.554 84.9685 226.198 83.9965 228.297 82.0526C230.475 80.1086 232.108 77.2315 233.196 73.4214C234.363 69.5335 234.946 64.7124 234.946 58.9583C234.946 53.2042 234.363 48.422 233.196 44.6118C232.108 40.7239 230.475 37.808 228.297 35.864C226.198 33.92 223.554 32.9481 220.366 32.9481C217.178 32.9481 214.495 33.92 212.318 35.864C210.141 37.808 208.469 40.7239 207.303 44.6118C206.214 48.422 205.67 53.2042 205.67 58.9583ZM284.856 2.03905V81.0028C284.856 82.4802 285.517 83.4522 286.839 83.9188C288.161 84.3853 289.832 84.6186 291.854 84.6186H292.087V89.1675H260.012V84.6186H260.245C262.267 84.6186 263.939 84.3853 265.261 83.9188C266.583 83.4522 267.243 82.4802 267.243 81.0028V11.1368C267.243 10.2037 267.01 9.50387 266.544 9.03732C266.155 8.49301 265.494 8.06534 264.561 7.75431C263.705 7.44327 262.578 7.17112 261.178 6.93784L260.012 6.70457V2.03905H284.856ZM321.533 2.03905V81.0028C321.533 82.4802 322.194 83.4522 323.516 83.9188C324.838 84.3853 326.509 84.6186 328.531 84.6186H328.764V89.1675H296.689V84.6186H296.922C298.944 84.6186 300.616 84.3853 301.938 83.9188C303.26 83.4522 303.921 82.4802 303.921 81.0028V11.1368C303.921 10.2037 303.687 9.50387 303.221 9.03732C302.832 8.49301 302.171 8.06534 301.238 7.75431C300.383 7.44327 299.255 7.17112 297.855 6.93784L296.689 6.70457V2.03905H321.533ZM424.629 80.8862C424.629 82.2859 425.212 83.219 426.378 83.6855C427.623 84.0743 429.255 84.3465 431.277 84.502H431.977V89.1675H408.066V75.1709L407.017 76.3373V11.1368C407.017 10.2037 406.783 9.50387 406.317 9.03732C405.85 8.49301 405.15 8.06534 404.217 7.75431C403.284 7.44327 402.079 7.17112 400.601 6.93784L399.435 6.70457V2.03905H424.629V80.8862ZM389.171 27.5827C393.137 27.5827 396.597 28.2826 399.552 29.6822C402.507 31.0819 405.111 33.2591 407.366 36.2139C409.621 39.1688 411.604 42.94 413.315 47.5278L410.399 49.8605C408.999 46.5169 407.483 43.7176 405.85 41.4626C404.295 39.1299 402.507 37.4192 400.485 36.3306C398.541 35.1642 396.286 34.581 393.72 34.581C391.309 34.581 389.21 35.1642 387.421 36.3306C385.633 37.4192 384.156 39.0132 382.989 41.1127C381.823 43.2122 380.929 45.8171 380.307 48.9274C379.684 52.0378 379.373 55.5758 379.373 59.5415C379.373 63.4294 379.646 66.8119 380.19 69.689C380.812 72.566 381.667 75.0154 382.756 77.0372C383.922 78.9811 385.361 80.4585 387.071 81.4694C388.782 82.4025 390.687 82.869 392.787 82.869C395.431 82.869 397.763 82.247 399.785 81.0028C401.807 79.7587 403.634 77.9314 405.267 75.5209C406.978 73.0326 408.611 70 410.166 66.4231L412.615 70.5054C410.516 74.9377 408.338 78.6312 406.083 81.586C403.828 84.4631 401.262 86.6403 398.385 88.1177C395.508 89.5952 392.048 90.3339 388.005 90.3339C382.795 90.3339 378.168 89.0508 374.125 86.4848C370.081 83.9188 366.893 80.3419 364.56 75.7541C362.305 71.0886 361.178 65.6844 361.178 59.5415C361.178 53.243 362.344 47.6833 364.677 42.8623C367.088 38.0413 370.392 34.3088 374.591 31.6651C378.868 28.9435 383.728 27.5827 389.171 27.5827ZM503.275 59.0749C503.275 65.2179 501.914 70.661 499.192 75.4042C496.471 80.0697 492.622 83.7244 487.645 86.3682C482.746 89.012 477.031 90.3339 470.499 90.3339C463.968 90.3339 458.214 89.012 453.237 86.3682C448.26 83.7244 444.411 80.0697 441.69 75.4042C438.968 70.661 437.608 65.2179 437.608 59.0749C437.608 54.4094 438.385 50.1716 439.94 46.3614C441.495 42.4735 443.712 39.1299 446.589 36.3306C449.543 33.5313 453.004 31.3929 456.969 29.9155C461.013 28.3603 465.523 27.5827 470.499 27.5827C475.398 27.5827 479.83 28.3603 483.796 29.9155C487.84 31.3929 491.3 33.5313 494.177 36.3306C497.132 39.1299 499.387 42.4735 500.942 46.3614C502.497 50.1716 503.275 54.4094 503.275 59.0749ZM455.803 58.9583C455.803 64.7124 456.347 69.5335 457.436 73.4214C458.602 77.2315 460.274 80.1086 462.451 82.0526C464.629 83.9965 467.311 84.9685 470.499 84.9685C473.688 84.9685 476.331 83.9965 478.431 82.0526C480.608 80.1086 482.241 77.2315 483.33 73.4214C484.496 69.5335 485.079 64.7124 485.079 58.9583C485.079 53.2042 484.496 48.422 483.33 44.6118C482.241 40.7239 480.608 37.808 478.431 35.864C476.331 33.92 473.688 32.9481 470.499 32.9481C467.311 32.9481 464.629 33.92 462.451 35.864C460.274 37.808 458.602 40.7239 457.436 44.6118C456.347 48.422 455.803 53.2042 455.803 58.9583ZM554.167 43.5621L540.054 89.1675H526.99L512.177 37.2637C511.866 36.175 511.4 35.3586 510.778 34.8143C510.233 34.27 509.572 33.8812 508.795 33.6479C508.017 33.4146 507.162 33.298 506.229 33.298H506.112V28.7491H536.788V33.298H536.671C535.505 33.298 534.339 33.3369 533.172 33.4146C532.006 33.4924 530.995 33.609 530.14 33.7645C529.362 33.8423 528.973 34.0367 528.973 34.3477L540.52 77.737L538.071 78.4368L553.001 28.7491H564.198L578.894 77.5037L576.445 78.0869L588.109 35.7474C588.031 35.2031 587.603 34.7754 586.826 34.4644C586.126 34.0756 585.193 33.8034 584.026 33.6479C582.938 33.4146 581.849 33.298 580.76 33.298H580.527V28.7491H599.189V33.298H599.073C598.139 33.298 597.284 33.4535 596.506 33.7645C595.729 34.0756 595.029 34.6199 594.407 35.3975C593.863 36.175 593.396 37.1859 593.007 38.43L578.894 89.1675H565.947L552.067 43.4455L554.167 43.5621ZM603.435 89.1675V84.6186H603.552C604.874 84.6186 606.04 84.5408 607.051 84.3853C608.14 84.1521 608.995 83.7633 609.617 83.219C610.317 82.6746 610.667 81.9359 610.667 81.0028V37.8469C610.667 36.9138 610.434 36.2139 609.967 35.7474C609.578 35.2031 608.917 34.7754 607.984 34.4644C607.129 34.1533 606.002 33.8423 604.602 33.5313L603.435 33.298V28.7491H627.113V41.2294L628.279 41.8125V83.5689C628.279 83.8021 628.59 83.9965 629.212 84.1521C629.912 84.3076 630.729 84.4242 631.662 84.502C632.673 84.5797 633.645 84.6186 634.578 84.6186H634.811V89.1675H603.435ZM674.701 89.1675H643.442V84.6186C644.298 84.6186 645.231 84.5797 646.242 84.502C647.252 84.4242 648.108 84.3076 648.808 84.1521C649.507 83.9965 649.857 83.8021 649.857 83.5689V46.2448C649.857 43.6787 649.585 41.6181 649.041 40.063C648.497 38.5078 647.641 37.3803 646.475 36.6805C645.386 35.9029 643.909 35.5141 642.043 35.5141C639.943 35.5141 637.96 36.0584 636.094 37.147C634.228 38.1579 632.517 39.6353 630.962 41.5793C629.407 43.5232 627.929 45.856 626.53 48.5775L625.13 43.0956C626.919 39.8297 628.901 37.0693 631.079 34.8143C633.334 32.4815 635.9 30.6931 638.777 29.4489C641.654 28.2048 644.842 27.5827 648.341 27.5827C652.307 27.5827 655.728 28.3214 658.605 29.7989C661.482 31.2763 663.698 33.4924 665.254 36.4472C666.809 39.3243 667.586 42.94 667.586 47.2945V81.0028C667.586 81.9359 667.897 82.6746 668.519 83.219C669.141 83.7633 669.958 84.1521 670.969 84.3853C671.98 84.5408 673.146 84.6186 674.468 84.6186H674.701V89.1675ZM704.777 33.4146V29.4489H705.127C707.616 29.4489 709.676 29.1768 711.309 28.6325C713.02 28.0882 714.342 27.2328 715.275 26.0664C716.208 24.9001 716.713 23.2671 716.791 21.1677L721.457 28.9824H741.052V33.4146H704.777ZM724.839 71.9051C724.839 75.2487 725.228 77.9314 726.005 79.9531C726.861 81.9748 728.027 83.4133 729.505 84.2687C731.06 85.124 732.809 85.5517 734.753 85.5517C736.697 85.5517 738.369 85.3184 739.769 84.8519C741.246 84.3853 742.257 84.0743 742.801 83.9188V88.351C742.101 88.7398 741.207 89.0897 740.119 89.4008C739.108 89.7118 738.019 89.9451 736.853 90.1006C735.686 90.2561 734.481 90.3339 733.237 90.3339C729.816 90.3339 726.666 89.7507 723.789 88.5843C720.912 87.4179 718.618 85.474 716.908 82.7524C715.275 80.0309 714.458 76.3762 714.458 71.7885V29.099L716.208 28.6325L717.258 13.7028H724.839V71.9051ZM809.928 59.1916C809.928 65.2567 808.606 70.661 805.962 75.4042C803.396 80.0697 799.82 83.7244 795.232 86.3682C790.644 89.012 785.395 90.3339 779.486 90.3339C773.576 90.3339 768.288 89.012 763.623 86.3682C759.035 83.7244 755.419 80.0697 752.776 75.4042C750.21 70.661 748.927 65.2567 748.927 59.1916C748.927 54.6038 749.665 50.4049 751.143 46.5947C752.698 42.7845 754.836 39.4798 757.558 36.6805C760.357 33.8812 763.584 31.7039 767.239 30.1488C770.971 28.5936 775.053 27.816 779.486 27.816C783.918 27.816 787.961 28.5936 791.616 30.1488C795.348 31.6262 798.575 33.8034 801.297 36.6805C804.096 39.4798 806.235 42.7845 807.712 46.5947C809.189 50.4049 809.928 54.6038 809.928 59.1916ZM759.891 59.1916C759.891 64.4014 760.629 69.028 762.107 73.0715C763.584 77.1149 765.761 80.2641 768.638 82.5191C771.593 84.7741 775.209 85.9016 779.486 85.9016C783.762 85.9016 787.339 84.7741 790.216 82.5191C793.093 80.2641 795.271 77.1538 796.748 73.1881C798.225 69.1447 798.964 64.4791 798.964 59.1916C798.964 53.8262 798.225 49.1218 796.748 45.0784C795.271 41.035 793.093 37.8857 790.216 35.6307C787.339 33.3757 783.762 32.2482 779.486 32.2482C775.209 32.2482 771.593 33.4146 768.638 35.7474C765.761 38.0024 763.584 41.1516 762.107 45.195C760.629 49.1607 759.891 53.8262 759.891 59.1916ZM903.6 81.1195C903.6 82.8302 904.455 83.9577 906.166 84.502C907.955 85.0463 910.132 85.3184 912.698 85.3184H913.048V89.1675H893.919V75.4042L893.219 75.9874V11.4867C893.219 10.3203 892.908 9.42611 892.286 8.80405C891.742 8.18198 890.809 7.67655 889.487 7.28776C888.243 6.89896 886.688 6.54905 884.821 6.23802L883.538 6.00474V2.03905H903.6V81.1195ZM873.974 27.816C877.706 27.816 880.972 28.4381 883.772 29.6822C886.649 30.9263 889.292 32.9481 891.703 35.7474C894.114 38.4689 896.446 42.0069 898.701 46.3614L896.485 49.7439C894.697 45.7782 892.753 42.5512 890.653 40.063C888.632 37.4969 886.299 35.6307 883.655 34.4644C881.089 33.298 878.251 32.7148 875.14 32.7148C872.108 32.7148 869.425 33.3369 867.092 34.581C864.76 35.8251 862.816 37.6136 861.261 39.9463C859.705 42.2791 858.539 45.1173 857.761 48.4609C856.984 51.7268 856.595 55.4203 856.595 59.5415C856.595 63.5072 856.984 67.0841 857.761 70.2722C858.539 73.4603 859.667 76.1818 861.144 78.4368C862.621 80.6918 864.449 82.4414 866.626 83.6855C868.881 84.9296 871.447 85.5517 874.324 85.5517C877.823 85.5517 880.895 84.813 883.538 83.3356C886.182 81.8582 888.515 79.7587 890.537 77.0372C892.636 74.3156 894.58 71.0109 896.369 67.1229L898.235 70.2722C895.98 74.7822 893.647 78.5146 891.236 81.4694C888.904 84.4242 886.26 86.6403 883.305 88.1177C880.35 89.5952 876.851 90.3339 872.808 90.3339C867.598 90.3339 862.932 89.0508 858.811 86.4848C854.768 83.9188 851.541 80.3419 849.13 75.7541C846.797 71.0886 845.631 65.6844 845.631 59.5415C845.631 53.243 846.797 47.7222 849.13 42.9789C851.541 38.2356 854.884 34.5421 859.161 31.8983C863.516 29.1768 868.453 27.816 873.974 27.816ZM933.429 14.8692C931.408 14.8692 929.697 14.2471 928.297 13.003C926.898 11.6811 926.198 9.93155 926.198 7.75431C926.198 5.57707 926.898 3.86638 928.297 2.62224C929.697 1.37811 931.408 0.756042 933.429 0.756042C935.451 0.756042 937.123 1.37811 938.445 2.62224C939.844 3.86638 940.544 5.57707 940.544 7.75431C940.544 9.93155 939.844 11.6811 938.445 13.003C937.123 14.2471 935.451 14.8692 933.429 14.8692ZM938.795 28.9824V81.1195C938.795 82.8302 939.65 83.9577 941.361 84.502C943.071 85.0463 945.249 85.3184 947.892 85.3184H948.126V89.1675H919.083V85.3184H919.316C921.96 85.3184 924.137 85.0463 925.848 84.502C927.559 83.9577 928.414 82.8302 928.414 81.1195V38.43C928.414 36.7194 927.753 35.553 926.431 34.9309C925.109 34.2311 923.087 33.6479 920.366 33.1813L919.083 32.9481V28.9824H938.795ZM993.678 74.5878C993.678 72.7993 993.25 71.3219 992.395 70.1555C991.54 68.9891 990.335 68.0172 988.779 67.2396C987.302 66.3842 985.591 65.6455 983.647 65.0235C981.781 64.3236 979.759 63.6627 977.582 63.0406C975.405 62.4185 973.15 61.6798 970.817 60.8245C968.484 59.9692 966.346 58.8805 964.402 57.5586C962.536 56.159 961.02 54.4094 959.853 52.3099C958.687 50.2105 958.104 47.5278 958.104 44.2619C958.104 41.0738 958.92 38.2745 960.553 35.864C962.264 33.3757 964.674 31.4318 967.785 30.0321C970.973 28.5547 974.744 27.816 979.098 27.816C982.364 27.816 985.241 28.127 987.73 28.7491C990.296 29.2934 992.434 29.9932 994.145 30.8486C995.933 31.6262 997.255 32.3649 998.11 33.0647V44.2619H988.896V32.8314C989.674 32.7537 990.335 32.9481 990.879 33.4146C991.423 33.8034 991.89 34.3088 992.278 34.9309C992.667 35.553 992.939 36.175 993.095 36.7971C993.25 37.3414 993.212 37.7302 992.978 37.9635C992.201 36.8749 991.151 35.9029 989.829 35.0475C988.585 34.1922 987.069 33.5313 985.28 33.0647C983.57 32.5204 981.509 32.2482 979.098 32.2482C974.666 32.2482 971.4 33.298 969.301 35.3975C967.201 37.4192 966.152 39.8686 966.152 42.7456C966.152 44.8451 966.618 46.5558 967.551 47.8777C968.562 49.1218 969.845 50.1716 971.4 51.0269C973.033 51.8045 974.861 52.5043 976.882 53.1264C978.904 53.6707 980.926 54.2539 982.947 54.876C985.28 55.498 987.574 56.2367 989.829 57.0921C992.084 57.9474 994.145 58.9972 996.011 60.2413C997.877 61.4854 999.355 63.0795 1000.44 65.0235C1001.53 66.8897 1002.08 69.2224 1002.08 72.0217C1002.08 75.5986 1001.14 78.7478 999.277 81.4694C997.488 84.1909 994.883 86.3682 991.462 88.0011C988.118 89.5563 984.075 90.3339 979.332 90.3339C975.599 90.3339 972.217 89.9839 969.184 89.2841C966.229 88.5843 963.663 87.6901 961.486 86.6014C959.309 85.5128 957.404 84.3853 955.771 83.219V71.2053H965.452V85.0852C964.596 84.6186 963.897 84.1521 963.352 83.6855C962.808 83.219 962.419 82.7913 962.186 82.4025C962.03 81.9359 961.992 81.4694 962.069 81.0028C962.147 80.5363 962.38 80.0309 962.769 79.4865C963.78 80.8862 965.102 82.0526 966.735 82.9857C968.445 83.9188 970.351 84.6575 972.45 85.2018C974.627 85.6683 976.921 85.9016 979.332 85.9016C982.442 85.9016 985.047 85.474 987.146 84.6186C989.246 83.6855 990.84 82.3636 991.929 80.6529C993.095 78.8645 993.678 76.8428 993.678 74.5878ZM1042.28 85.9016C1045.54 85.9016 1048.38 85.3573 1050.79 84.2687C1053.2 83.1801 1055.26 81.7027 1056.98 79.8365C1058.76 77.9703 1060.28 75.9485 1061.52 73.7713L1065.26 76.6872C1063.7 79.4865 1061.76 81.9359 1059.42 84.0354C1057.17 86.0571 1054.56 87.6123 1051.61 88.7009C1048.65 89.7895 1045.31 90.3339 1041.58 90.3339C1035.75 90.3339 1030.5 89.012 1025.83 86.3682C1021.25 83.6466 1017.63 79.9531 1014.99 75.2876C1012.34 70.5443 1011.02 65.1012 1011.02 58.9583C1011.02 52.8154 1012.34 47.45 1014.99 42.8623C1017.63 38.1968 1021.32 34.5421 1026.07 31.8983C1030.89 29.1768 1036.41 27.816 1042.63 27.816C1045.97 27.816 1049.04 28.2048 1051.84 28.9824C1054.64 29.6822 1057.09 30.5376 1059.19 31.5484C1061.29 32.5593 1063 33.609 1064.32 34.6976V47.0612H1054.41V33.7645C1055.19 33.8423 1055.93 34.0756 1056.63 34.4644C1057.33 34.8532 1057.95 35.3975 1058.49 36.0973C1059.04 36.7194 1059.42 37.4192 1059.66 38.1968C1059.89 38.9744 1059.89 39.7519 1059.66 40.5295C1058.34 38.2745 1056.16 36.3306 1053.13 34.6976C1050.17 33.0647 1046.67 32.2482 1042.63 32.2482C1037.96 32.2482 1034.11 33.3757 1031.08 35.6307C1028.05 37.8857 1025.76 41.035 1024.2 45.0784C1022.72 49.1218 1021.98 53.7485 1021.98 58.9583C1021.98 63.0017 1022.41 66.6953 1023.27 70.0389C1024.2 73.3047 1025.52 76.1429 1027.23 78.5534C1028.94 80.8862 1031.04 82.7135 1033.53 84.0354C1036.1 85.2796 1039.01 85.9016 1042.28 85.9016ZM1134.55 59.1916C1134.55 65.2567 1133.23 70.661 1130.59 75.4042C1128.02 80.0697 1124.45 83.7244 1119.86 86.3682C1115.27 89.012 1110.02 90.3339 1104.11 90.3339C1098.2 90.3339 1092.92 89.012 1088.25 86.3682C1083.66 83.7244 1080.05 80.0697 1077.4 75.4042C1074.84 70.661 1073.55 65.2567 1073.55 59.1916C1073.55 54.6038 1074.29 50.4049 1075.77 46.5947C1077.32 42.7845 1079.46 39.4798 1082.18 36.6805C1084.98 33.8812 1088.21 31.7039 1091.87 30.1488C1095.6 28.5936 1099.68 27.816 1104.11 27.816C1108.54 27.816 1112.59 28.5936 1116.24 30.1488C1119.98 31.6262 1123.2 33.8034 1125.92 36.6805C1128.72 39.4798 1130.86 42.7845 1132.34 46.5947C1133.82 50.4049 1134.55 54.6038 1134.55 59.1916ZM1084.52 59.1916C1084.52 64.4014 1085.26 69.028 1086.73 73.0715C1088.21 77.1149 1090.39 80.2641 1093.26 82.5191C1096.22 84.7741 1099.84 85.9016 1104.11 85.9016C1108.39 85.9016 1111.97 84.7741 1114.84 82.5191C1117.72 80.2641 1119.9 77.1538 1121.37 73.1881C1122.85 69.1447 1123.59 64.4791 1123.59 59.1916C1123.59 53.8262 1122.85 49.1218 1121.37 45.0784C1119.9 41.035 1117.72 37.8857 1114.84 35.6307C1111.97 33.3757 1108.39 32.2482 1104.11 32.2482C1099.84 32.2482 1096.22 33.4146 1093.26 35.7474C1090.39 38.0024 1088.21 41.1516 1086.73 45.195C1085.26 49.1607 1084.52 53.8262 1084.52 59.1916ZM1189.6 35.3975C1189.6 34.8532 1189.13 34.4255 1188.2 34.1144C1187.26 33.7257 1186.1 33.4535 1184.7 33.298C1183.3 33.0647 1181.94 32.9481 1180.62 32.9481H1180.38V28.9824H1201.14V32.9481H1201.03C1199.86 32.9481 1198.77 33.1036 1197.76 33.4146C1196.75 33.7257 1195.86 34.27 1195.08 35.0475C1194.38 35.8251 1193.76 36.8749 1193.21 38.1968L1173.73 89.1675H1166.04L1145.86 36.6805C1145.47 35.5919 1144.93 34.8143 1144.23 34.3477C1143.53 33.8034 1142.67 33.4535 1141.66 33.298C1140.65 33.0647 1139.6 32.9481 1138.51 32.9481H1138.39V28.9824H1165.1V32.9481H1164.87C1163.55 32.9481 1162.15 32.9869 1160.67 33.0647C1159.19 33.1425 1157.95 33.2591 1156.94 33.4146C1155.93 33.4924 1155.42 33.6868 1155.42 33.9978L1173.62 82.7524L1171.75 82.869L1189.6 35.3975ZM1215.04 59.6581C1215.04 63.8571 1215.55 67.5895 1216.56 70.8553C1217.65 74.1212 1219.12 76.8816 1220.99 79.1366C1222.85 81.3139 1225.03 82.9857 1227.52 84.1521C1230.09 85.3184 1232.89 85.9016 1235.92 85.9016C1239.11 85.9016 1241.87 85.3573 1244.2 84.2687C1246.61 83.1801 1248.67 81.7027 1250.38 79.8365C1252.17 77.9703 1253.69 75.9097 1254.93 73.6547L1258.55 76.9205C1257.15 79.6421 1255.28 82.0137 1252.95 84.0354C1250.69 86.0571 1248.09 87.6123 1245.13 88.7009C1242.18 89.7895 1238.87 90.3339 1235.22 90.3339C1229.62 90.3339 1224.49 89.0897 1219.82 86.6014C1215.16 84.0354 1211.42 80.4585 1208.63 75.8708C1205.9 71.2053 1204.54 65.7233 1204.54 59.4248C1204.54 53.1264 1205.79 47.6055 1208.28 42.8623C1210.84 38.119 1214.3 34.4255 1218.66 31.7817C1223.01 29.1379 1227.91 27.816 1233.35 27.816C1237.4 27.816 1240.97 28.5158 1244.08 29.9155C1247.27 31.2374 1249.95 33.1813 1252.13 35.7474C1254.39 38.3134 1256.1 41.5015 1257.26 45.3117C1258.43 49.1218 1259.01 53.5152 1259.01 58.4917H1212.12L1212.01 54.2928H1251.78L1248.52 55.9257C1248.44 52.0378 1248.09 48.6164 1247.47 45.6616C1246.84 42.7068 1245.87 40.2574 1244.55 38.3134C1243.31 36.2917 1241.75 34.7754 1239.88 33.7645C1238.02 32.7537 1235.84 32.2482 1233.35 32.2482C1230.71 32.2482 1228.26 32.8703 1226 34.1144C1223.75 35.3586 1221.81 37.1859 1220.17 39.5964C1218.54 41.9292 1217.26 44.8062 1216.32 48.2276C1215.47 51.5712 1215.04 55.3814 1215.04 59.6581ZM1307.53 28.1659V38.1968C1307.06 38.0413 1306.48 37.9246 1305.78 37.8469C1305.08 37.6913 1304.3 37.5747 1303.45 37.4969C1302.59 37.3414 1301.73 37.2637 1300.88 37.2637C1298.94 37.2637 1297.26 37.5358 1295.86 38.0801C1294.46 38.6244 1293.14 39.4798 1291.9 40.6462C1290.73 41.7348 1289.68 43.1344 1288.75 44.8451C1287.82 46.4781 1286.84 48.4998 1285.83 50.9103L1284.9 46.2448C1286.38 42.4346 1288.05 39.1687 1289.92 36.4472C1291.78 33.7257 1293.84 31.6262 1296.1 30.1488C1298.43 28.5936 1301 27.816 1303.8 27.816C1304.65 27.816 1305.39 27.8549 1306.01 27.9326C1306.63 27.9326 1307.14 28.0104 1307.53 28.1659ZM1267.29 89.1675V85.3184H1267.4C1270.05 85.3184 1272.23 85.0463 1273.94 84.502C1275.72 83.9577 1276.62 82.8302 1276.62 81.1195V38.43C1276.62 37.2637 1276.31 36.3694 1275.69 35.7474C1275.14 35.1253 1274.25 34.6199 1273 34.2311C1271.84 33.8423 1270.36 33.4924 1268.57 33.1813L1267.29 32.9481V28.9824H1286.18V45.3117L1287 44.2619V83.4522C1287 83.9188 1287.43 84.2687 1288.28 84.502C1289.22 84.7352 1290.38 84.9296 1291.78 85.0852C1293.26 85.2407 1294.7 85.3184 1296.1 85.3184H1298.43V89.1675H1267.29ZM1341.1 89.1675V85.3184H1341.33C1343.97 85.3184 1346.15 85.0463 1347.86 84.502C1349.57 83.9577 1350.43 82.8302 1350.43 81.1195V38.43C1350.43 37.1859 1350.12 36.2917 1349.5 35.7474C1348.95 35.1253 1348.06 34.6199 1346.81 34.2311C1345.65 33.8423 1344.17 33.4924 1342.38 33.1813L1341.1 32.9481V28.9824H1359.99V40.8794L1360.81 42.2791V84.0354C1360.81 84.3465 1361.24 84.6186 1362.09 84.8519C1363.03 85.0074 1364.11 85.124 1365.36 85.2018C1366.6 85.2796 1367.69 85.3184 1368.62 85.3184H1368.86V89.1675H1341.1ZM1403.97 89.1675H1377.49V85.3184H1377.61C1378.69 85.3184 1379.82 85.2796 1380.99 85.2018C1382.23 85.124 1383.28 85.0074 1384.14 84.8519C1385.07 84.6186 1385.54 84.3853 1385.54 84.1521V47.0612C1385.54 43.6399 1385.23 40.9183 1384.6 38.8966C1384.06 36.7971 1383.13 35.2808 1381.8 34.3477C1380.56 33.3369 1378.85 32.8314 1376.67 32.8314C1374.26 32.8314 1372.01 33.4535 1369.91 34.6976C1367.89 35.864 1365.94 37.5747 1364.08 39.8297C1362.29 42.0847 1360.46 44.9229 1358.59 48.3443L1357.08 44.1453C1359.18 40.8017 1361.24 37.9246 1363.26 35.5141C1365.36 33.0258 1367.65 31.1207 1370.14 29.7989C1372.71 28.477 1375.7 27.816 1379.12 27.816C1382.47 27.816 1385.38 28.477 1387.87 29.7989C1390.36 31.1207 1392.3 33.1813 1393.7 35.9806C1395.18 38.7022 1395.92 42.2402 1395.92 46.5947V84.0354C1395.92 84.3465 1396.34 84.6186 1397.2 84.8519C1398.13 85.0074 1399.18 85.124 1400.35 85.2018C1401.59 85.2796 1402.76 85.3184 1403.85 85.3184H1403.97V89.1675ZM1440.59 89.1675H1412.71V85.3184H1412.83C1413.92 85.3184 1415.05 85.2796 1416.21 85.2018C1417.46 85.0463 1418.51 84.8908 1419.36 84.7352C1420.22 84.5797 1420.64 84.3853 1420.64 84.1521V47.0612C1420.64 43.6399 1420.37 40.9183 1419.83 38.8966C1419.28 36.7971 1418.35 35.2808 1417.03 34.3477C1415.78 33.3369 1414.04 32.8314 1411.78 32.8314C1409.37 32.8314 1407.11 33.4535 1405.02 34.6976C1402.99 35.9418 1401.05 37.6913 1399.18 39.9463C1397.39 42.2013 1395.57 45.0006 1393.7 48.3443L1392.42 44.1453C1394.36 40.8017 1396.38 37.9246 1398.48 35.5141C1400.58 33.0258 1402.88 31.1207 1405.36 29.7989C1407.93 28.477 1410.89 27.816 1414.23 27.816C1417.57 27.816 1420.49 28.477 1422.98 29.7989C1425.47 31.1207 1427.41 33.1813 1428.81 35.9806C1430.29 38.7022 1431.03 42.2402 1431.03 46.5947V81.1195C1431.03 82.8302 1431.88 83.9577 1433.59 84.502C1435.38 85.0463 1437.6 85.3184 1440.24 85.3184H1440.59V89.1675ZM1508.5 59.1916C1508.5 65.2567 1507.18 70.661 1504.54 75.4042C1501.97 80.0697 1498.39 83.7244 1493.81 86.3682C1489.22 89.012 1483.97 90.3339 1478.06 90.3339C1472.15 90.3339 1466.86 89.012 1462.2 86.3682C1457.61 83.7244 1453.99 80.0697 1451.35 75.4042C1448.78 70.661 1447.5 65.2567 1447.5 59.1916C1447.5 54.6038 1448.24 50.4049 1449.72 46.5947C1451.27 42.7845 1453.41 39.4798 1456.13 36.6805C1458.93 33.8812 1462.16 31.7039 1465.81 30.1488C1469.54 28.5936 1473.63 27.816 1478.06 27.816C1482.49 27.816 1486.54 28.5936 1490.19 30.1488C1493.92 31.6262 1497.15 33.8034 1499.87 36.6805C1502.67 39.4798 1504.81 42.7845 1506.29 46.5947C1507.76 50.4049 1508.5 54.6038 1508.5 59.1916ZM1458.46 59.1916C1458.46 64.4014 1459.2 69.028 1460.68 73.0715C1462.16 77.1149 1464.33 80.2641 1467.21 82.5191C1470.17 84.7741 1473.78 85.9016 1478.06 85.9016C1482.34 85.9016 1485.91 84.7741 1488.79 82.5191C1491.67 80.2641 1493.84 77.1538 1495.32 73.1881C1496.8 69.1447 1497.54 64.4791 1497.54 59.1916C1497.54 53.8262 1496.8 49.1218 1495.32 45.0784C1493.84 41.035 1491.67 37.8857 1488.79 35.6307C1485.91 33.3757 1482.34 32.2482 1478.06 32.2482C1473.78 32.2482 1470.17 33.4146 1467.21 35.7474C1464.33 38.0024 1462.16 41.1516 1460.68 45.195C1459.2 49.1607 1458.46 53.8262 1458.46 59.1916ZM1557.32 28.1659V38.1968C1556.85 38.0413 1556.27 37.9246 1555.57 37.8469C1554.87 37.6913 1554.09 37.5747 1553.24 37.4969C1552.38 37.3414 1551.53 37.2637 1550.67 37.2637C1548.73 37.2637 1547.06 37.5358 1545.66 38.0801C1544.26 38.6244 1542.93 39.4798 1541.69 40.6462C1540.52 41.7348 1539.47 43.1344 1538.54 44.8451C1537.61 46.4781 1536.64 48.4998 1535.62 50.9103L1534.69 46.2448C1536.17 42.4346 1537.84 39.1687 1539.71 36.4472C1541.57 33.7257 1543.63 31.6262 1545.89 30.1488C1548.22 28.5936 1550.79 27.816 1553.59 27.816C1554.44 27.816 1555.18 27.8549 1555.8 27.9326C1556.43 27.9326 1556.93 28.0104 1557.32 28.1659ZM1517.08 89.1675V85.3184H1517.2C1519.84 85.3184 1522.02 85.0463 1523.73 84.502C1525.52 83.9577 1526.41 82.8302 1526.41 81.1195V38.43C1526.41 37.2637 1526.1 36.3694 1525.48 35.7474C1524.93 35.1253 1524.04 34.6199 1522.79 34.2311C1521.63 33.8423 1520.15 33.4924 1518.36 33.1813L1517.08 32.9481V28.9824H1535.97V45.3117L1536.79 44.2619V83.4522C1536.79 83.9188 1537.22 84.2687 1538.07 84.502C1539.01 84.7352 1540.17 84.9296 1541.57 85.0852C1543.05 85.2407 1544.49 85.3184 1545.89 85.3184H1548.22V89.1675H1517.08ZM1574.52 59.6581C1574.52 63.8571 1575.03 67.5895 1576.04 70.8553C1577.13 74.1212 1578.6 76.8816 1580.47 79.1366C1582.34 81.3139 1584.51 82.9857 1587 84.1521C1589.57 85.3184 1592.37 85.9016 1595.4 85.9016C1598.59 85.9016 1601.35 85.3573 1603.68 84.2687C1606.09 83.1801 1608.15 81.7027 1609.86 79.8365C1611.65 77.9703 1613.17 75.9097 1614.41 73.6547L1618.03 76.9205C1616.63 79.6421 1614.76 82.0137 1612.43 84.0354C1610.17 86.0571 1607.57 87.6123 1604.61 88.7009C1601.66 89.7895 1598.35 90.3339 1594.7 90.3339C1589.1 90.3339 1583.97 89.0897 1579.3 86.6014C1574.64 84.0354 1570.91 80.4585 1568.11 75.8708C1565.38 71.2053 1564.02 65.7233 1564.02 59.4248C1564.02 53.1264 1565.27 47.6055 1567.76 42.8623C1570.32 38.119 1573.78 34.4255 1578.14 31.7817C1582.49 29.1379 1587.39 27.816 1592.83 27.816C1596.88 27.816 1600.45 28.5158 1603.56 29.9155C1606.75 31.2374 1609.44 33.1813 1611.61 35.7474C1613.87 38.3134 1615.58 41.5015 1616.74 45.3117C1617.91 49.1218 1618.49 53.5152 1618.49 58.4917H1571.61L1571.49 54.2928H1611.26L1608 55.9257C1607.92 52.0378 1607.57 48.6164 1606.95 45.6616C1606.32 42.7068 1605.35 40.2574 1604.03 38.3134C1602.79 36.2917 1601.23 34.7754 1599.37 33.7645C1597.5 32.7537 1595.32 32.2482 1592.83 32.2482C1590.19 32.2482 1587.74 32.8703 1585.49 34.1144C1583.23 35.3586 1581.29 37.1859 1579.65 39.5964C1578.02 41.9292 1576.74 44.8062 1575.8 48.2276C1574.95 51.5712 1574.52 55.3814 1574.52 59.6581ZM1634.75 89.9839C1632.73 89.9839 1631.06 89.323 1629.74 88.0011C1628.42 86.6792 1627.76 85.0074 1627.76 82.9857C1627.76 80.964 1628.42 79.331 1629.74 78.0869C1631.06 76.765 1632.73 76.104 1634.75 76.104C1636.85 76.104 1638.53 76.765 1639.77 78.0869C1641.09 79.331 1641.75 80.964 1641.75 82.9857C1641.75 85.0074 1641.09 86.6792 1639.77 88.0011C1638.53 89.323 1636.85 89.9839 1634.75 89.9839Z" fill="#FFA800"/>
</svg>
