<svg width="38" height="33" viewBox="0 0 38 33" fill="none" xmlns="http://www.w3.org/2000/svg">
<path id="Vector" d="M18.9319 0.25C8.95533 0.25 0.77425 6.73 0 14.9659L10.184 18.5099C11.0469 18.0153 12.0887 17.7233 13.2113 17.7233C13.311 17.7233 13.4092 17.7287 13.509 17.7314L18.0389 12.2086V12.13C18.0389 8.80333 21.2499 6.098 25.2019 6.098C29.1507 6.098 32.3649 8.806 32.3649 12.1341C32.3649 15.4621 29.1507 18.1673 25.2019 18.1673H25.0357L18.582 22.0487C18.582 22.1181 18.5883 22.1887 18.5883 22.2607C18.5883 24.7606 16.1895 26.7887 13.2208 26.7887C10.6321 26.7887 8.4455 25.2247 7.94675 23.1527L0.6555 20.61C2.91333 27.3261 10.2347 32.25 18.9319 32.25C29.4247 32.25 37.9303 25.0859 37.9303 16.25C37.9303 7.414 29.423 0.25 18.9319 0.25ZM11.9035 24.53L9.57125 23.7167C9.98608 24.4407 10.7017 25.0487 11.6517 25.3833C13.7053 26.1021 16.074 25.282 16.9274 23.5501C17.3438 22.7101 17.3455 21.7913 16.9353 20.9513C16.5253 20.1113 15.7478 19.4566 14.755 19.1073C13.767 18.7606 12.7125 18.7753 11.7816 19.0673L14.193 19.9074C15.7067 20.4407 16.4239 21.9073 15.7905 23.1807C15.162 24.4566 13.4203 25.0607 11.9051 24.53H11.9035ZM29.9773 12.1259C29.9773 9.91 27.835 8.106 25.2035 8.106C22.5672 8.106 20.4297 9.91 20.4297 12.1259C20.4297 14.346 22.5672 16.146 25.2035 16.146C27.8365 16.146 29.9773 14.346 29.9773 12.1259ZM21.6283 12.1193C21.6283 10.45 23.2322 9.098 25.2145 9.098C27.1922 9.098 28.8024 10.45 28.8024 12.1193C28.8024 13.7874 27.1922 15.1393 25.2145 15.1393C23.2307 15.1393 21.6283 13.7874 21.6283 12.1193Z" fill="#EEEEEE"/>
</svg>
