<svg width="1912" height="136" viewBox="0 0 1912 136" fill="none" xmlns="http://www.w3.org/2000/svg">
<path d="M0.503997 7.92385H34.9592V12.1624H32.0879C30.3561 12.1624 28.5786 12.208 26.7556 12.2991C25.0237 12.3903 23.5653 12.527 22.3803 12.7093C21.2865 12.8916 20.7396 13.1651 20.7396 13.5297L40.565 98.4371H38.1039L65.8595 7.92385H73.3795L98.127 97.7535H95.8027L116.585 15.5806C116.585 15.0337 116.312 14.4868 115.765 13.9398C115.218 13.3929 114.215 12.9828 112.757 12.7093C111.298 12.3447 109.293 12.1624 106.741 12.1624H102.366V7.92385H132.035V12.1624H131.078C128.799 12.1624 126.703 12.9372 124.789 14.4867C122.875 16.0363 121.507 18.4974 120.687 21.87L99.6311 105H88.9663L65.1759 20.0926H67.7737L41.7955 105H31.1308L9.25452 16.6744C8.79877 14.6691 7.84168 13.4385 6.38326 12.9828C4.92484 12.4358 3.19296 12.1624 1.18763 12.1624H0.503997V7.92385ZM145.754 70.2714C145.754 75.3758 146.346 79.8878 147.531 83.8073C148.716 87.6357 150.403 90.9171 152.59 93.6517C154.869 96.295 157.512 98.346 160.52 99.8044C163.528 101.172 166.855 101.855 170.502 101.855C174.239 101.855 177.52 101.217 180.346 99.9411C183.172 98.5738 185.587 96.7964 187.592 94.6088C189.689 92.4211 191.466 90.0056 192.925 87.3622L196.753 90.6437C195.112 93.9251 192.925 96.7508 190.19 99.1207C187.547 101.491 184.448 103.314 180.893 104.59C177.429 105.775 173.646 106.367 169.544 106.367C162.982 106.367 156.92 104.909 151.36 101.992C145.891 98.984 141.515 94.7455 138.234 89.2764C134.953 83.8073 133.312 77.3812 133.312 69.9979C133.312 62.6146 134.816 56.1429 137.824 50.5827C140.832 45.0224 144.888 40.6928 149.992 37.5936C155.188 34.4945 160.976 32.9449 167.357 32.9449C172.006 32.9449 176.153 33.7197 179.799 35.2692C183.536 36.8188 186.681 39.0976 189.233 42.1056C191.877 45.0224 193.882 48.6685 195.249 53.0438C196.616 57.419 197.3 62.4323 197.3 68.0837H142.062L141.926 63.8452H188.96L185.131 65.4859C185.04 60.9283 184.63 56.9177 183.901 53.4539C183.172 49.9902 182.032 47.0733 180.483 44.7034C179.024 42.3335 177.201 40.556 175.014 39.3711C172.826 38.0949 170.274 37.4569 167.357 37.4569C164.167 37.4569 161.204 38.2317 158.47 39.7812C155.826 41.2397 153.547 43.3817 151.633 46.2074C149.81 49.0331 148.352 52.4968 147.258 56.5987C146.255 60.7005 145.754 65.258 145.754 70.2714ZM229.036 2.59151V95.8393C229.036 97.8446 229.993 99.1663 231.907 99.8044C233.912 100.442 236.464 100.761 239.564 100.761H239.837V105H206.066V100.761H206.339C209.347 100.761 211.854 100.442 213.859 99.8044C215.864 99.1663 216.867 97.8446 216.867 95.8393V13.2562C216.867 11.8889 216.502 10.8407 215.773 10.1115C215.135 9.38228 214.132 8.78979 212.765 8.33404C211.398 7.87828 209.666 7.4681 207.569 7.10349L206.066 6.83004V2.59151H229.036ZM284.787 101.855C288.615 101.855 291.897 101.217 294.631 99.9411C297.457 98.665 299.918 96.9787 302.015 94.8822C304.111 92.6946 305.889 90.2335 307.347 87.4989L311.312 90.6437C309.489 93.834 307.21 96.6597 304.476 99.1207C301.832 101.491 298.779 103.314 295.315 104.59C291.942 105.775 288.16 106.367 283.967 106.367C277.13 106.367 270.978 104.818 265.509 101.719C260.131 98.5283 255.847 94.153 252.656 88.5928C249.557 83.0325 248.008 76.6519 248.008 69.451C248.008 62.25 249.557 55.915 252.656 50.4459C255.847 44.9769 260.222 40.6928 265.782 37.5936C271.433 34.4945 277.905 32.9449 285.197 32.9449C288.934 32.9449 292.398 33.3551 295.589 34.1754C298.87 34.9046 301.741 35.8617 304.202 37.0467C306.663 38.2317 308.623 39.4622 310.082 40.7383V54.6845H298.733V39.2343C299.554 39.2343 300.374 39.4622 301.194 39.918C302.015 40.3737 302.744 41.0118 303.382 41.8321C304.02 42.5614 304.476 43.3817 304.749 44.2932C305.114 45.2047 305.159 46.1163 304.886 47.0278C303.336 44.4755 300.83 42.2423 297.366 40.3281C293.902 38.414 289.846 37.4569 285.197 37.4569C279.728 37.4569 275.216 38.8241 271.661 41.5587C268.106 44.2932 265.417 48.076 263.594 52.907C261.771 57.6469 260.86 63.1615 260.86 69.451C260.86 74.282 261.361 78.7028 262.364 82.7135C263.458 86.633 265.007 90.0512 267.013 92.968C269.018 95.7937 271.479 97.9813 274.396 99.5309C277.404 101.08 280.868 101.855 284.787 101.855ZM392.289 69.8612C392.289 76.971 390.739 83.306 387.64 88.8662C384.541 94.3353 380.302 98.6194 374.924 101.719C369.546 104.818 363.394 106.367 356.466 106.367C349.63 106.367 343.477 104.818 338.008 101.719C332.63 98.6194 328.392 94.3353 325.292 88.8662C322.193 83.306 320.644 76.971 320.644 69.8612C320.644 64.3921 321.51 59.4243 323.242 54.9579C325.065 50.4004 327.571 46.5264 330.762 43.3361C334.043 40.0547 337.826 37.5025 342.11 35.6794C346.485 33.8564 351.271 32.9449 356.466 32.9449C361.662 32.9449 366.402 33.8564 370.686 35.6794C375.061 37.4113 378.844 39.918 382.034 43.1994C385.316 46.4809 387.822 50.4004 389.554 54.9579C391.377 59.4243 392.289 64.3921 392.289 69.8612ZM333.496 69.7244C333.496 76.0139 334.362 81.5741 336.094 86.4051C337.917 91.2362 340.515 95.0189 343.887 97.7535C347.351 100.488 351.544 101.855 356.466 101.855C361.571 101.855 365.809 100.488 369.182 97.7535C372.554 95.0189 375.107 91.2817 376.839 86.5419C378.57 81.7108 379.436 76.105 379.436 69.7244C379.436 63.435 378.57 57.8748 376.839 53.0438C375.107 48.1216 372.554 44.2932 369.182 41.5587C365.809 38.8241 361.571 37.4569 356.466 37.4569C351.544 37.4569 347.351 38.8241 343.887 41.5587C340.515 44.2932 337.917 48.1216 336.094 53.0438C334.362 57.8748 333.496 63.435 333.496 69.7244ZM402.076 105V100.761H402.35C405.358 100.761 407.865 100.442 409.87 99.8044C411.966 99.1663 413.015 97.8446 413.015 95.8393V44.9769C413.015 43.5184 412.65 42.4702 411.921 41.8321C411.283 41.1029 410.234 40.5104 408.776 40.0547C407.409 39.5989 405.677 39.1888 403.58 38.8241L402.076 38.5507V34.3122H424.089V48.1216L425.183 49.7623V99.3942C425.183 99.6676 425.685 99.9411 426.687 100.215C427.69 100.397 428.92 100.534 430.379 100.625C431.837 100.716 433.159 100.761 434.344 100.761H434.481V105H402.076ZM475.636 105H444.872V100.761H445.009C446.285 100.761 447.606 100.716 448.974 100.625C450.341 100.534 451.526 100.397 452.529 100.215C453.622 99.9411 454.169 99.6676 454.169 99.3942V55.0947C454.169 51.084 453.805 47.8481 453.076 45.387C452.438 42.8348 451.344 41.0118 449.794 39.918C448.336 38.733 446.285 38.1405 443.641 38.1405C440.816 38.1405 438.172 38.8697 435.711 40.3281C433.341 41.7866 431.063 43.883 428.875 46.6176C426.778 49.3521 424.636 52.7703 422.449 56.8721L420.398 52.907C422.859 48.8964 425.274 45.387 427.644 42.379C430.105 39.3711 432.84 37.0467 435.848 35.406C438.947 33.7653 442.548 32.9449 446.649 32.9449C450.569 32.9449 453.987 33.7197 456.904 35.2692C459.821 36.8188 462.1 39.2343 463.74 42.5158C465.472 45.7061 466.338 49.8535 466.338 54.9579V99.3942C466.338 99.6676 466.839 99.9411 467.842 100.215C468.936 100.397 470.166 100.534 471.534 100.625C472.992 100.716 474.314 100.761 475.499 100.761H475.636V105ZM518.705 105H486.3V100.761H486.437C487.622 100.761 488.898 100.716 490.265 100.625C491.724 100.534 492.954 100.397 493.957 100.215C495.051 100.032 495.598 99.7588 495.598 99.3942V55.0947C495.598 51.084 495.233 47.8481 494.504 45.387C493.866 42.8348 492.772 41.0118 491.222 39.918C489.673 38.733 487.576 38.1405 484.933 38.1405C482.107 38.1405 479.464 38.9153 477.003 40.4649C474.633 41.9233 472.354 44.0198 470.166 46.7543C468.07 49.4889 465.928 52.8614 463.74 56.8721L461.826 52.907C464.196 48.8964 466.612 45.387 469.073 42.379C471.534 39.3711 474.268 37.0467 477.276 35.406C480.284 33.7653 483.885 32.9449 488.078 32.9449C491.906 32.9449 495.279 33.7197 498.195 35.2692C501.112 36.8188 503.437 39.2343 505.169 42.5158C506.9 45.7061 507.766 49.8535 507.766 54.9579V95.8393C507.766 97.8446 508.769 99.1663 510.774 99.8044C512.78 100.442 515.286 100.761 518.294 100.761H518.705V105ZM538.844 70.2714C538.844 75.3758 539.436 79.8878 540.621 83.8073C541.806 87.6357 543.493 90.9171 545.68 93.6517C547.959 96.295 550.602 98.346 553.61 99.8044C556.618 101.172 559.945 101.855 563.592 101.855C567.329 101.855 570.61 101.217 573.436 99.9411C576.262 98.5738 578.677 96.7964 580.682 94.6088C582.779 92.4211 584.556 90.0056 586.015 87.3622L589.843 90.6437C588.202 93.9251 586.015 96.7508 583.28 99.1207C580.637 101.491 577.538 103.314 573.983 104.59C570.519 105.775 566.736 106.367 562.634 106.367C556.072 106.367 550.01 104.909 544.45 101.992C538.981 98.984 534.605 94.7455 531.324 89.2764C528.043 83.8073 526.402 77.3812 526.402 69.9979C526.402 62.6146 527.906 56.1429 530.914 50.5827C533.922 45.0224 537.978 40.6928 543.082 37.5936C548.278 34.4945 554.066 32.9449 560.447 32.9449C565.096 32.9449 569.243 33.7197 572.889 35.2692C576.626 36.8188 579.771 39.0976 582.323 42.1056C584.967 45.0224 586.972 48.6685 588.339 53.0438C589.706 57.419 590.39 62.4323 590.39 68.0837H535.152L535.016 63.8452H582.05L578.221 65.4859C578.13 60.9283 577.72 56.9177 576.991 53.4539C576.262 49.9902 575.122 47.0733 573.573 44.7034C572.114 42.3335 570.291 40.556 568.104 39.3711C565.916 38.0949 563.364 37.4569 560.447 37.4569C557.257 37.4569 554.294 38.2317 551.56 39.7812C548.916 41.2397 546.637 43.3817 544.723 46.2074C542.9 49.0331 541.442 52.4968 540.348 56.5987C539.345 60.7005 538.844 65.258 538.844 70.2714ZM627.808 38.8241V34.7223H628.355C631.181 34.7223 633.551 34.4033 635.465 33.7653C637.47 33.036 639.02 31.9422 640.114 30.4838C641.208 29.0254 641.846 27.0201 642.028 24.4678L646.813 34.3122H669.784V38.8241H627.808ZM651.052 85.448C651.052 89.3676 651.508 92.5123 652.419 94.8822C653.422 97.161 654.789 98.8473 656.521 99.9411C658.344 100.944 660.349 101.445 662.537 101.445C664.907 101.445 666.912 101.126 668.553 100.488C670.194 99.85 671.288 99.4853 671.834 99.3942V104.043C671.014 104.499 669.966 104.909 668.69 105.273C667.505 105.638 666.229 105.912 664.861 106.094C663.494 106.276 662.036 106.367 660.486 106.367C656.475 106.367 652.829 105.684 649.548 104.316C646.267 102.949 643.669 100.716 641.755 97.6167C639.84 94.5176 638.883 90.4158 638.883 85.3113V33.902L641.344 33.4918L642.712 16.5377H651.052V85.448ZM750.529 69.8612C750.529 76.971 748.98 83.306 745.881 88.8662C742.781 94.3353 738.543 98.6194 733.165 101.719C727.787 104.818 721.634 106.367 714.707 106.367C707.871 106.367 701.718 104.818 696.249 101.719C690.871 98.6194 686.632 94.3353 683.533 88.8662C680.434 83.306 678.884 76.971 678.884 69.8612C678.884 64.3921 679.75 59.4243 681.482 54.9579C683.305 50.4004 685.812 46.5264 689.002 43.3361C692.284 40.0547 696.066 37.5025 700.351 35.6794C704.726 33.8564 709.511 32.9449 714.707 32.9449C719.902 32.9449 724.642 33.8564 728.926 35.6794C733.302 37.4113 737.085 39.918 740.275 43.1994C743.556 46.4809 746.063 50.4004 747.795 54.9579C749.618 59.4243 750.529 64.3921 750.529 69.8612ZM691.737 69.7244C691.737 76.0139 692.603 81.5741 694.335 86.4051C696.158 91.2362 698.755 95.0189 702.128 97.7535C705.592 100.488 709.785 101.855 714.707 101.855C719.811 101.855 724.05 100.488 727.422 97.7535C730.795 95.0189 733.347 91.2817 735.079 86.5419C736.811 81.7108 737.677 76.105 737.677 69.7244C737.677 63.435 736.811 57.8748 735.079 53.0438C733.347 48.1216 730.795 44.2932 727.422 41.5587C724.05 38.8241 719.811 37.4569 714.707 37.4569C709.785 37.4569 705.592 38.8241 702.128 41.5587C698.755 44.2932 696.158 48.1216 694.335 53.0438C692.603 57.8748 691.737 63.435 691.737 69.7244ZM814.28 106.367C811.272 106.367 808.492 105.912 805.94 105C803.388 103.997 801.291 102.357 799.651 100.078C798.101 97.799 797.326 94.7455 797.326 90.9171C797.326 89.4587 797.372 88.0459 797.463 86.6786C797.645 85.3113 797.873 83.8529 798.147 82.3033L806.214 36.3631L808.811 34.3122H836.02L835.2 38.8241H795.002L795.822 34.9958H796.232C799.149 34.9958 801.61 34.7223 803.616 34.1754C805.621 33.5374 807.262 32.4891 808.538 31.0307C809.905 29.5723 810.953 27.567 811.683 25.0147L814.144 16.5377H821.937L810.042 83.5339C809.86 84.7188 809.677 85.8582 809.495 86.952C809.313 88.0459 809.176 89.0941 809.085 90.0968C809.085 91.0083 809.085 91.9654 809.085 92.968C809.085 95.8849 809.632 98.0269 810.726 99.3942C811.911 100.67 813.688 101.308 816.058 101.308C817.79 101.308 819.385 101.08 820.843 100.625C822.302 100.078 823.623 99.4398 824.808 98.7106C825.993 97.8902 827.042 97.2066 827.953 96.6597L826.723 101.855C825.629 102.767 824.034 103.769 821.937 104.863C819.841 105.866 817.288 106.367 814.28 106.367ZM843.044 105L859.178 13.2562C859.452 11.8889 859.269 10.8407 858.631 10.1115C858.084 9.38228 857.082 8.78979 855.623 8.33404C854.256 7.87828 852.479 7.4681 850.291 7.10349L848.787 6.83004L849.471 2.59151H873.124L855.076 105H843.044ZM898.966 91.7375C898.875 92.2844 898.783 92.8313 898.692 93.3782C898.601 93.834 898.51 94.2897 898.419 94.7455C898.419 95.2012 898.419 95.6114 898.419 95.976C898.419 97.7079 898.783 98.9384 899.513 99.6676C900.333 100.397 901.563 100.761 903.204 100.761C904.571 100.761 905.893 100.534 907.169 100.078C908.537 99.6221 909.767 99.0752 910.861 98.4371C912.046 97.7079 913.049 97.1154 913.869 96.6597L912.775 101.172C911.955 101.992 910.861 102.812 909.494 103.633C908.126 104.453 906.622 105.091 904.982 105.547C903.341 106.094 901.563 106.367 899.649 106.367C897.097 106.367 894.864 105.912 892.95 105C891.036 104.088 889.532 102.721 888.438 100.898C887.344 98.984 886.797 96.6597 886.797 93.9251C886.797 93.2871 886.797 92.6946 886.797 92.1477C886.888 91.6008 886.979 91.0083 887.07 90.3702C887.162 89.7322 887.298 89.0485 887.481 88.3193L893.223 56.4619C893.497 55.0035 893.724 53.4539 893.907 51.8132C894.089 50.1725 894.18 48.6685 894.18 47.3012C894.18 44.8401 893.588 42.7892 892.403 41.1485C891.218 39.4166 889.03 38.5507 885.84 38.5507C882.65 38.5507 879.733 39.5534 877.089 41.5587C874.446 43.564 871.848 46.6632 869.296 50.8561C866.744 54.9579 864.009 60.1991 861.092 66.5797L858.768 63.1615C860.956 58.1482 863.098 53.773 865.194 50.0358C867.291 46.2074 869.524 43.0627 871.894 40.6016C874.355 38.0494 876.953 36.1352 879.687 34.8591C882.422 33.583 885.475 32.9449 888.848 32.9449C894.682 32.9449 899.011 34.4489 901.837 37.4569C904.754 40.4649 906.212 44.3844 906.212 49.2154C906.212 50.5827 906.121 51.9499 905.939 53.3172C905.848 54.5933 905.711 55.8694 905.529 57.1456L898.966 91.7375ZM951.419 106.367C945.95 106.367 940.982 105.137 936.515 102.676C932.14 100.215 928.631 96.6141 925.987 91.8742C923.435 87.0432 922.159 81.1639 922.159 74.2364C922.159 68.5851 923.116 63.2527 925.03 58.2394C927.036 53.2261 929.77 48.8508 933.234 45.1136C936.789 41.2852 940.936 38.3228 945.676 36.2263C950.507 34.0387 955.794 32.9449 961.536 32.9449C966.003 32.9449 969.74 33.6741 972.748 35.1325C975.756 36.5909 978.035 38.4595 979.584 40.7383C981.134 42.926 981.909 45.3415 981.909 47.9849C981.909 51.5398 980.541 54.6845 977.807 57.419C975.164 60.0624 971.517 62.4323 966.869 64.5288C962.22 66.6253 956.797 68.5851 950.598 70.4081C944.4 72.2311 937.837 74.0541 930.91 75.8772L932.003 71.6386C938.84 69.7244 944.673 67.9926 949.504 66.443C954.427 64.8023 958.437 63.116 961.536 61.3841C964.636 59.6522 966.914 57.6469 968.373 55.3681C969.922 52.9982 970.697 50.1725 970.697 46.891C970.697 45.2503 970.378 43.7463 969.74 42.379C969.102 40.9206 968.054 39.7357 966.595 38.8241C965.137 37.9126 963.314 37.4569 961.126 37.4569C957.298 37.4569 953.743 38.4595 950.462 40.4649C947.271 42.379 944.491 45.068 942.121 48.5318C939.842 51.9955 938.065 56.0517 936.789 60.7005C935.604 65.3492 935.011 70.3625 935.011 75.7404C935.011 81.3007 935.741 85.995 937.199 89.8233C938.657 93.5605 940.708 96.4318 943.352 98.4371C946.086 100.351 949.231 101.308 952.786 101.308C956.523 101.308 959.805 100.579 962.63 99.1207C965.456 97.6623 967.963 95.657 970.15 93.1048C972.338 90.5525 974.115 87.5445 975.483 84.0808L979.584 86.952C977.579 91.5096 975.118 95.2012 972.201 98.0269C969.375 100.853 966.231 102.949 962.767 104.316C959.303 105.684 955.52 106.367 951.419 106.367ZM1057.09 135.49H1018.13V130.705H1018.26C1019.81 130.705 1021.18 130.568 1022.36 130.294C1023.64 130.112 1024.64 129.702 1025.37 129.064C1026.1 128.517 1026.47 127.651 1026.47 126.466V44.0198C1026.47 42.926 1026.24 42.1056 1025.78 41.5587C1025.33 40.9206 1024.55 40.4193 1023.46 40.0547C1022.46 39.6901 1021.18 39.3711 1019.63 39.0976L1018.13 38.8241V33.902H1045.88V49.2154L1047.25 49.3521V129.337C1047.25 129.611 1047.71 129.839 1048.62 130.021C1049.53 130.294 1050.67 130.477 1052.03 130.568C1053.4 130.659 1054.68 130.705 1055.86 130.705H1057.09V135.49ZM1067.9 106.367C1063.34 106.367 1059.33 105.638 1055.86 104.18C1052.49 102.721 1049.53 100.397 1046.98 97.2066C1044.42 93.9251 1042.1 89.5954 1040 84.2175L1044.1 81.2095C1045.47 85.3113 1047.02 88.7295 1048.75 91.464C1050.58 94.1074 1052.63 96.0672 1054.91 97.3433C1057.28 98.6194 1059.92 99.2575 1062.84 99.2575C1065.66 99.2575 1068.12 98.5738 1070.22 97.2066C1072.32 95.8393 1074.05 93.834 1075.42 91.1906C1076.78 88.5472 1077.78 85.3569 1078.42 81.6197C1079.15 77.7913 1079.52 73.4616 1079.52 68.6306C1079.52 63.9819 1079.2 59.9257 1078.56 56.4619C1077.92 52.907 1076.92 49.9446 1075.55 47.5747C1074.28 45.2047 1072.68 43.4729 1070.77 42.379C1068.85 41.1941 1066.62 40.6016 1064.07 40.6016C1060.97 40.6016 1058.14 41.3764 1055.59 42.926C1053.13 44.3844 1050.9 46.572 1048.89 49.4889C1046.88 52.4057 1045.02 55.915 1043.28 60.0168L1040.14 56.5987C1042.6 51.2207 1045.2 46.7543 1047.93 43.1994C1050.76 39.6445 1053.95 37.0011 1057.5 35.2692C1061.15 33.4462 1065.3 32.5347 1069.95 32.5347C1076.05 32.5347 1081.39 34.0387 1085.94 37.0467C1090.59 40.0547 1094.24 44.2932 1096.88 49.7623C1099.62 55.1402 1100.98 61.4297 1100.98 68.6306C1100.98 76.0139 1099.57 82.5768 1096.74 88.3193C1093.92 93.9707 1090.04 98.3915 1085.12 101.582C1080.2 104.772 1074.46 106.367 1067.9 106.367ZM1187.12 69.5877C1187.12 76.7887 1185.52 83.1693 1182.33 88.7295C1179.14 94.2897 1174.68 98.6194 1168.94 101.719C1163.19 104.818 1156.45 106.367 1148.7 106.367C1141.04 106.367 1134.3 104.818 1128.46 101.719C1122.63 98.6194 1118.12 94.2897 1114.93 88.7295C1111.74 83.1693 1110.14 76.7887 1110.14 69.5877C1110.14 64.1186 1111.05 59.1509 1112.88 54.6845C1114.7 50.1269 1117.3 46.2074 1120.67 42.926C1124.13 39.6445 1128.19 37.0923 1132.84 35.2692C1137.58 33.4462 1142.87 32.5347 1148.7 32.5347C1154.44 32.5347 1159.64 33.4462 1164.29 35.2692C1169.03 37.0011 1173.08 39.5534 1176.46 42.926C1179.92 46.2074 1182.56 50.1269 1184.39 54.6845C1186.21 59.1509 1187.12 64.1186 1187.12 69.5877ZM1131.61 69.5877C1131.61 76.4241 1132.25 82.1666 1133.52 86.8153C1134.8 91.464 1136.71 94.9734 1139.27 97.3433C1141.82 99.6221 1144.96 100.761 1148.7 100.761C1152.53 100.761 1155.67 99.6221 1158.13 97.3433C1160.69 94.9734 1162.6 91.5096 1163.88 86.952C1165.15 82.3033 1165.79 76.5152 1165.79 69.5877C1165.79 62.5691 1165.15 56.7354 1163.88 52.0867C1162.6 47.4379 1160.69 43.9742 1158.13 41.6954C1155.67 39.3255 1152.53 38.1405 1148.7 38.1405C1144.96 38.1405 1141.82 39.3255 1139.27 41.6954C1136.71 43.9742 1134.8 47.4379 1133.52 52.0867C1132.25 56.7354 1131.61 62.5691 1131.61 69.5877ZM1247.82 33.3551V50.9928C1247.18 50.8105 1246.4 50.6282 1245.49 50.4459C1244.67 50.2636 1243.72 50.1269 1242.62 50.0358C1241.62 49.9446 1240.62 49.899 1239.61 49.899C1237.61 49.899 1235.74 50.1269 1234.01 50.5827C1232.37 51.0384 1230.77 51.7676 1229.22 52.7703C1227.76 53.6818 1226.44 54.8668 1225.26 56.3252C1224.07 57.7836 1223.02 59.5155 1222.11 61.5208L1221.29 57.2823C1222.84 52.5424 1224.57 48.3495 1226.49 44.7034C1228.49 40.9662 1230.86 38.0494 1233.6 35.9529C1236.33 33.8564 1239.48 32.8082 1243.03 32.8082C1244.22 32.8082 1245.17 32.8537 1245.9 32.9449C1246.72 33.036 1247.36 33.1728 1247.82 33.3551ZM1195.18 105V100.215H1195.31C1197.68 100.215 1199.64 99.9411 1201.19 99.3942C1202.83 98.8473 1203.65 97.7079 1203.65 95.976V44.0198C1203.65 42.926 1203.38 42.1056 1202.83 41.5587C1202.38 40.9206 1201.6 40.4193 1200.51 40.0547C1199.51 39.6901 1198.23 39.3711 1196.68 39.0976L1195.18 38.8241V33.902H1222.93V55.3681L1224.3 54.6845V98.8473C1224.3 99.1207 1224.71 99.3486 1225.53 99.5309C1226.44 99.7132 1227.58 99.8955 1228.95 100.078C1230.32 100.169 1231.68 100.215 1233.05 100.215H1235.37V105H1195.18ZM1254.86 105V100.215H1255C1256.55 100.215 1257.92 100.123 1259.1 99.9411C1260.38 99.6676 1261.38 99.2119 1262.11 98.5738C1262.93 97.9358 1263.34 97.0698 1263.34 95.976V44.0198C1263.34 42.926 1263.07 42.1056 1262.52 41.5587C1262.06 40.9206 1261.29 40.4193 1260.19 40.0547C1259.19 39.6901 1257.92 39.3711 1256.37 39.0976L1254.86 38.8241V33.902H1282.62V48.5318L1283.98 49.3521V98.984C1283.98 99.2575 1284.35 99.4853 1285.08 99.6676C1285.81 99.7588 1286.72 99.8955 1287.81 100.078C1289 100.169 1290.18 100.215 1291.37 100.215H1291.5V105H1254.86ZM1338.4 105H1301.9V100.215C1302.9 100.215 1303.99 100.169 1305.18 100.078C1306.36 99.9867 1307.36 99.85 1308.19 99.6676C1309.01 99.4853 1309.42 99.2575 1309.42 98.984V54.1376C1309.42 51.1296 1309.1 48.6685 1308.46 46.7543C1307.82 44.8401 1306.82 43.4729 1305.45 42.6525C1304.08 41.741 1302.31 41.2852 1300.12 41.2852C1297.66 41.2852 1295.33 41.9233 1293.15 43.1994C1291.05 44.3844 1289.09 46.1163 1287.27 48.395C1285.44 50.6738 1283.71 53.3628 1282.07 56.4619L1280.02 51.1296C1282.21 47.2101 1284.62 43.883 1287.27 41.1485C1289.91 38.414 1292.92 36.3175 1296.29 34.8591C1299.66 33.3095 1303.45 32.5347 1307.64 32.5347C1312.29 32.5347 1316.25 33.4462 1319.53 35.2692C1322.91 37.0011 1325.5 39.5534 1327.33 42.926C1329.15 46.2986 1330.06 50.5371 1330.06 55.6416V95.976C1330.06 97.0698 1330.43 97.9358 1331.16 98.5738C1331.88 99.2119 1332.84 99.6676 1334.03 99.9411C1335.21 100.123 1336.58 100.215 1338.13 100.215H1338.4V105ZM1428.09 51.2663L1411.14 105H1396.78L1379.15 43.4729C1378.78 42.1967 1378.23 41.2397 1377.51 40.6016C1376.87 39.9635 1376.09 39.5078 1375.18 39.2343C1374.36 38.8697 1373.4 38.6874 1372.31 38.6874H1372.17V33.902H1407.86V38.6874H1407.59C1406.4 38.6874 1405.08 38.733 1403.62 38.8241C1402.25 38.9153 1401.07 39.052 1400.07 39.2343C1399.15 39.4166 1398.7 39.6901 1398.7 40.0547L1412.64 91.3273L1409.77 91.464L1427.55 33.902H1439.85L1457.49 90.7804L1454.62 91.0538L1468.29 41.5587C1468.29 41.0118 1467.84 40.5104 1466.93 40.0547C1466.01 39.5989 1464.87 39.2799 1463.51 39.0976C1462.23 38.8241 1461 38.6874 1459.82 38.6874H1459.54V33.902H1480.32V38.6874H1480.05C1479.14 38.6874 1478.23 38.9153 1477.32 39.3711C1476.4 39.7357 1475.63 40.3737 1474.99 41.2852C1474.35 42.1967 1473.81 43.3817 1473.35 44.8401L1456.53 105H1442.31L1425.63 51.1296L1428.09 51.2663ZM1503.45 69.8612C1503.45 75.0568 1503.91 79.5688 1504.82 83.3971C1505.82 87.1343 1507.24 90.2791 1509.06 92.8313C1510.88 95.2924 1513.11 97.161 1515.76 98.4371C1518.4 99.6221 1521.41 100.215 1524.78 100.215C1528.25 100.215 1531.34 99.5765 1534.08 98.3004C1536.81 97.0243 1539.18 95.338 1541.19 93.2415C1543.29 91.0538 1545.06 88.6383 1546.52 85.995L1551.17 89.4131C1549.44 92.8769 1547.16 95.8849 1544.33 98.4371C1541.51 100.989 1538.18 102.949 1534.35 104.316C1530.62 105.684 1526.29 106.367 1521.36 106.367C1513.89 106.367 1507.24 104.909 1501.4 101.992C1495.57 98.984 1490.96 94.7455 1487.59 89.2764C1484.31 83.7162 1482.67 77.1988 1482.67 69.7244C1482.67 62.3412 1484.27 55.8694 1487.46 50.3092C1490.65 44.6578 1494.98 40.2826 1500.44 37.1834C1506 34.0843 1512.25 32.5347 1519.18 32.5347C1524.46 32.5347 1529.11 33.3551 1533.12 34.9958C1537.22 36.5454 1540.69 38.8697 1543.51 41.9689C1546.34 44.9769 1548.48 48.7596 1549.94 53.3172C1551.49 57.7836 1552.26 62.9337 1552.26 68.7674H1494.7L1494.57 63.435H1536.13L1532.85 64.8023C1532.76 59.9713 1532.44 55.8694 1531.89 52.4968C1531.34 49.0331 1530.52 46.2986 1529.43 44.2932C1528.34 42.1967 1526.92 40.6472 1525.19 39.6445C1523.55 38.6418 1521.64 38.1405 1519.45 38.1405C1517.08 38.1405 1514.89 38.7786 1512.89 40.0547C1510.97 41.2397 1509.29 43.1083 1507.83 45.6605C1506.46 48.2127 1505.37 51.5398 1504.55 55.6416C1503.82 59.6522 1503.45 64.3921 1503.45 69.8612ZM1607.42 106.367C1602.87 106.367 1598.81 105.684 1595.26 104.316C1591.79 102.949 1588.69 100.625 1585.96 97.3433C1583.31 94.0618 1580.85 89.5954 1578.57 83.944L1583.5 80.7993C1584.86 84.9923 1586.41 88.456 1588.15 91.1906C1589.97 93.9251 1592.06 95.9304 1594.43 97.2066C1596.8 98.4827 1599.4 99.1207 1602.23 99.1207C1605.05 99.1207 1607.52 98.4827 1609.61 97.2066C1611.71 95.8393 1613.44 93.8795 1614.81 91.3273C1616.17 88.7751 1617.22 85.6303 1617.95 81.8931C1618.68 78.0648 1619.05 73.6895 1619.05 68.7674C1619.05 64.0275 1618.68 59.9257 1617.95 56.4619C1617.31 52.907 1616.36 49.9446 1615.08 47.5747C1613.8 45.2047 1612.21 43.4273 1610.3 42.2423C1608.38 41.0574 1606.1 40.4649 1603.46 40.4649C1600.36 40.4649 1597.58 41.2397 1595.12 42.7892C1592.66 44.2477 1590.38 46.4809 1588.28 49.4889C1586.28 52.4057 1584.36 55.915 1582.54 60.0168L1579.39 56.8721C1581.95 51.3119 1584.64 46.7543 1587.46 43.1994C1590.29 39.6445 1593.48 37.0011 1597.03 35.2692C1600.59 33.4462 1604.73 32.5347 1609.47 32.5347C1615.49 32.5347 1620.82 34.0387 1625.47 37.0467C1630.12 40.0547 1633.77 44.2932 1636.41 49.7623C1639.05 55.1402 1640.38 61.4752 1640.38 68.7674C1640.38 76.1506 1638.96 82.6679 1636.14 88.3193C1633.4 93.9707 1629.53 98.3915 1624.51 101.582C1619.59 104.772 1613.9 106.367 1607.42 106.367ZM1565.86 12.7093C1565.86 11.6155 1565.59 10.7951 1565.04 10.2482C1564.58 9.61015 1563.81 9.10882 1562.71 8.74421C1561.71 8.37961 1560.39 8.01501 1558.75 7.6504L1557.25 7.37694V2.59151H1586.5V92.1477L1584.86 91.8742L1577.62 105.547H1565.86V12.7093ZM1693.05 89.2764C1693.05 87.4534 1692.59 85.9038 1691.68 84.6277C1690.86 83.3516 1689.63 82.2577 1687.99 81.3462C1686.35 80.4347 1684.44 79.6144 1682.25 78.8851C1680.06 78.1559 1677.6 77.4267 1674.86 76.6975C1672.22 75.8772 1669.53 74.9656 1666.8 73.963C1664.06 72.9603 1661.51 71.6386 1659.14 69.9979C1656.86 68.266 1655.04 66.124 1653.67 63.5717C1652.3 60.9283 1651.62 57.6469 1651.62 53.7274C1651.62 49.261 1652.76 45.4782 1655.04 42.379C1657.41 39.2799 1660.74 36.8644 1665.02 35.1325C1669.3 33.4006 1674.32 32.5347 1680.06 32.5347C1684.53 32.5347 1688.45 32.9449 1691.82 33.7653C1695.19 34.4945 1697.97 35.3604 1700.16 36.3631C1702.35 37.2746 1703.94 38.1405 1704.94 38.9609V51.8132H1690.59V37.5936C1691.32 37.5936 1691.96 37.8215 1692.5 38.2772C1693.05 38.733 1693.5 39.2799 1693.87 39.918C1694.23 40.556 1694.46 41.1941 1694.55 41.8321C1694.74 42.4702 1694.74 42.926 1694.55 43.1994C1693.64 42.1967 1692.5 41.3308 1691.13 40.6016C1689.86 39.7812 1688.35 39.1432 1686.62 38.6874C1684.89 38.2317 1682.84 38.0038 1680.47 38.0038C1675.91 38.0038 1672.54 39.0065 1670.35 41.0118C1668.16 43.0171 1667.07 45.4782 1667.07 48.395C1667.07 50.4915 1667.53 52.2234 1668.44 53.5907C1669.44 54.8668 1670.81 55.9606 1672.54 56.8721C1674.27 57.7836 1676.28 58.604 1678.56 59.3332C1680.93 59.9713 1683.43 60.7005 1686.08 61.5208C1688.9 62.25 1691.68 63.1615 1694.42 64.2554C1697.24 65.3492 1699.79 66.6709 1702.07 68.2204C1704.44 69.77 1706.31 71.7298 1707.68 74.0997C1709.05 76.4696 1709.73 79.4321 1709.73 82.987C1709.73 87.7268 1708.5 91.8742 1706.04 95.4291C1703.67 98.8929 1700.16 101.582 1695.51 103.496C1690.86 105.41 1685.16 106.367 1678.42 106.367C1673.68 106.367 1669.4 105.957 1665.57 105.137C1661.74 104.316 1658.46 103.268 1655.72 101.992C1653.08 100.716 1650.98 99.5309 1649.43 98.4371V84.3542H1664.61V101.035C1663.79 100.488 1663.06 99.9867 1662.42 99.5309C1661.88 98.984 1661.47 98.4827 1661.19 98.0269C1661.01 97.48 1660.87 96.9331 1660.78 96.3862C1660.78 95.8393 1660.92 95.2924 1661.19 94.7455C1662.29 96.1127 1663.7 97.2521 1665.43 98.1637C1667.16 99.0752 1669.08 99.7588 1671.17 100.215C1673.36 100.67 1675.64 100.898 1678.01 100.898C1681.29 100.898 1684.03 100.442 1686.21 99.5309C1688.49 98.5283 1690.18 97.161 1691.27 95.4291C1692.46 93.6972 1693.05 91.6463 1693.05 89.2764ZM1735.98 21.4598C1732.42 21.4598 1729.55 20.5483 1727.36 18.7253C1725.18 16.9023 1724.08 14.3956 1724.08 11.2053C1724.08 8.01501 1725.18 5.50835 1727.36 3.68532C1729.55 1.86229 1732.42 0.950779 1735.98 0.950779C1739.53 0.950779 1742.36 1.86229 1744.46 3.68532C1746.64 5.50835 1747.74 8.01501 1747.74 11.2053C1747.74 14.3956 1746.64 16.9023 1744.46 18.7253C1742.36 20.5483 1739.53 21.4598 1735.98 21.4598ZM1746.51 33.902V95.976C1746.51 97.7079 1747.28 98.8473 1748.83 99.3942C1750.38 99.9411 1752.29 100.215 1754.57 100.215H1754.85V105H1717.38V100.215H1717.66C1720.03 100.215 1721.99 99.9411 1723.54 99.3942C1725.09 98.8473 1725.86 97.7079 1725.86 95.976V44.0198C1725.86 42.3791 1725.27 41.2852 1724.08 40.7383C1722.99 40.1003 1721.26 39.5534 1718.89 39.0976L1717.38 38.8241V33.902H1746.51ZM1758.72 39.3711V34.4489H1759.13C1761.5 34.4489 1763.56 34.221 1765.29 33.7653C1767.02 33.2183 1768.34 32.3524 1769.25 31.1674C1770.25 29.9825 1770.85 28.3417 1771.03 26.2453L1775.95 33.902H1805.89V39.3711H1758.72ZM1788.94 86.1317C1788.94 89.5954 1789.31 92.3755 1790.03 94.472C1790.85 96.4774 1791.99 97.8902 1793.45 98.7106C1795 99.5309 1796.83 99.9411 1798.92 99.9411C1800.84 99.9411 1802.57 99.6676 1804.12 99.1207C1805.67 98.5738 1806.67 98.2548 1807.13 98.1637V103.906C1806.4 104.271 1805.35 104.635 1803.98 105C1802.7 105.456 1801.2 105.775 1799.47 105.957C1797.74 106.231 1795.82 106.367 1793.73 106.367C1788.8 106.367 1784.38 105.638 1780.46 104.18C1776.64 102.721 1773.63 100.306 1771.44 96.9331C1769.25 93.5605 1768.16 89.1397 1768.16 83.6706V34.8591L1770.21 33.902L1772.12 15.7173H1788.94V86.1317ZM1833.12 69.8612C1833.12 75.0568 1833.58 79.5688 1834.49 83.3971C1835.49 87.1343 1836.9 90.2791 1838.73 92.8313C1840.55 95.2924 1842.78 97.161 1845.42 98.4371C1848.07 99.6221 1851.08 100.215 1854.45 100.215C1857.91 100.215 1861.01 99.5765 1863.75 98.3004C1866.48 97.0243 1868.85 95.338 1870.86 93.2415C1872.95 91.0538 1874.73 88.6383 1876.19 85.995L1880.84 89.4131C1879.11 92.8769 1876.83 95.8849 1874 98.4371C1871.18 100.989 1867.85 102.949 1864.02 104.316C1860.28 105.684 1855.95 106.367 1851.03 106.367C1843.56 106.367 1836.9 104.909 1831.07 101.992C1825.23 98.984 1820.63 94.7455 1817.26 89.2764C1813.98 83.7162 1812.34 77.1988 1812.34 69.7244C1812.34 62.3412 1813.93 55.8694 1817.12 50.3092C1820.31 44.6578 1824.64 40.2826 1830.11 37.1834C1835.67 34.0843 1841.92 32.5347 1848.84 32.5347C1854.13 32.5347 1858.78 33.3551 1862.79 34.9958C1866.89 36.5454 1870.35 38.8697 1873.18 41.9689C1876.01 44.9769 1878.15 48.7596 1879.61 53.3172C1881.16 57.7836 1881.93 62.9337 1881.93 68.7674H1824.37L1824.23 63.435H1865.8L1862.52 64.8023C1862.42 59.9713 1862.11 55.8694 1861.56 52.4968C1861.01 49.0331 1860.19 46.2986 1859.1 44.2932C1858 42.1967 1856.59 40.6472 1854.86 39.6445C1853.22 38.6418 1851.3 38.1405 1849.12 38.1405C1846.75 38.1405 1844.56 38.7786 1842.55 40.0547C1840.64 41.2397 1838.95 43.1083 1837.49 45.6605C1836.13 48.2127 1835.03 51.5398 1834.21 55.6416C1833.48 59.6522 1833.12 64.3921 1833.12 69.8612ZM1900.9 106.094C1897.71 106.094 1895.16 105.182 1893.25 103.359C1891.33 101.445 1890.38 99.0296 1890.38 96.1127C1890.38 93.1048 1891.33 90.6892 1893.25 88.8662C1895.16 87.0432 1897.71 86.1317 1900.9 86.1317C1904.09 86.1317 1906.6 87.0432 1908.42 88.8662C1910.34 90.6892 1911.29 93.1048 1911.29 96.1127C1911.29 99.0296 1910.34 101.445 1908.42 103.359C1906.6 105.182 1904.09 106.094 1900.9 106.094Z" fill="#FFA800"/>
</svg>
