<svg width="33" height="33" viewBox="0 0 33 33" fill="none" xmlns="http://www.w3.org/2000/svg">
<g id="WechatFilled" clip-path="url(#clip0_3_21)">
<path id="Vector" d="M23.1107 11.4429C23.3214 11.4429 23.5321 11.45 23.7393 11.4607C22.8679 6.86429 18.0857 3.35001 12.3143 3.35001C5.92857 3.35001 0.75 7.65715 0.75 12.9714C0.75 15.8679 2.30714 18.4786 4.74643 20.2429C4.84704 20.3139 4.92909 20.4081 4.98565 20.5175C5.04222 20.6269 5.07164 20.7483 5.07143 20.8714C5.07143 20.9572 5.05357 21.0357 5.03214 21.1179C4.83571 21.8429 4.525 23.0036 4.51071 23.0571C4.48571 23.15 4.45 23.2429 4.45 23.3393C4.45 23.55 4.62143 23.725 4.83571 23.725C4.91786 23.725 4.98571 23.6929 5.05714 23.6536L7.58929 22.1929C7.77857 22.0822 7.98214 22.0143 8.20357 22.0143C8.31786 22.0143 8.43214 22.0321 8.54286 22.0643C9.725 22.4036 11 22.5929 12.3179 22.5929C12.5321 22.5929 12.7429 22.5893 12.9536 22.5786C12.7 21.8286 12.5643 21.0393 12.5643 20.2214C12.5643 15.3714 17.2857 11.4429 23.1107 11.4429ZM16.1714 8.35358C17.0214 8.35358 17.7143 9.04286 17.7143 9.89286C17.7143 10.7429 17.025 11.4321 16.1714 11.4321C15.3214 11.4321 14.6286 10.7429 14.6286 9.89286C14.6286 9.04286 15.3214 8.35358 16.1714 8.35358ZM8.46071 11.4321C7.61071 11.4321 6.91786 10.7429 6.91786 9.89286C6.91786 9.04286 7.60714 8.35358 8.46071 8.35358C9.31429 8.35358 10.0036 9.04286 10.0036 9.89286C10.0036 10.7429 9.31071 11.4321 8.46071 11.4321ZM29.4179 26.275C31.45 24.8036 32.7464 22.6322 32.7464 20.2143C32.7464 15.7857 28.4321 12.1964 23.1071 12.1964C17.7857 12.1964 13.4679 15.7857 13.4679 20.2143C13.4679 24.6429 17.7821 28.2322 23.1071 28.2322C24.2071 28.2322 25.2714 28.075 26.2536 27.7929C26.3464 27.7643 26.4393 27.75 26.5357 27.75C26.7214 27.75 26.8893 27.8071 27.0464 27.8964L29.1571 29.1107C29.2179 29.1464 29.275 29.1714 29.3429 29.1714C29.3852 29.1718 29.4272 29.1637 29.4664 29.1478C29.5056 29.1319 29.5413 29.1083 29.5714 29.0786C29.6012 29.0485 29.6247 29.0128 29.6407 28.9736C29.6566 28.9343 29.6646 28.8923 29.6643 28.85C29.6643 28.7714 29.6321 28.6929 29.6143 28.6143C29.6036 28.5714 29.3429 27.6036 29.1786 26.9964C29.1607 26.9286 29.1464 26.8607 29.1464 26.7929C29.15 26.5822 29.2571 26.3929 29.4179 26.275ZM19.9 18.9357C19.1893 18.9357 18.6143 18.3607 18.6143 17.6536C18.6143 16.9464 19.1893 16.3714 19.9 16.3714C20.6107 16.3714 21.1857 16.9464 21.1857 17.6536C21.1857 18.3607 20.6071 18.9357 19.9 18.9357ZM26.325 18.9357C25.6143 18.9357 25.0393 18.3607 25.0393 17.6536C25.0393 16.9464 25.6143 16.3714 26.325 16.3714C27.0357 16.3714 27.6107 16.9464 27.6107 17.6536C27.609 17.9937 27.4729 18.3194 27.2321 18.5596C26.9912 18.7998 26.6651 18.935 26.325 18.9357Z" fill="white"/>
</g>
<defs>
<clipPath id="clip0_3_21">
<rect width="32" height="32" fill="white" transform="translate(0.75 0.25)"/>
</clipPath>
</defs>
</svg>
